<svg xmlns="http://www.w3.org/2000/svg" width="1660" height="1830" viewBox="0 0 1660 1830"><defs><marker id="mf2f2f2" viewBox="0 0 10 10" refX="9" refY="5" markerWidth="9" markerHeight="9" markerUnits="userSpaceOnUse" orient="auto-start-reverse"><path d="M0 0 L10 5 L0 10 Z" fill="#f2f2f2"/></marker><marker id="mF54749" viewBox="0 0 10 10" refX="9" refY="5" markerWidth="9" markerHeight="9" markerUnits="userSpaceOnUse" orient="auto-start-reverse"><path d="M0 0 L10 5 L0 10 Z" fill="#F54749"/></marker><linearGradient id="gstorage" x1="0" y1="1" x2="1" y2="0"><stop offset="0" stop-color="#4F7A12"/><stop offset="1" stop-color="#7AA116"/></linearGradient><linearGradient id="gdb" x1="0" y1="1" x2="1" y2="0"><stop offset="0" stop-color="#2A36B0"/><stop offset="1" stop-color="#4D72F3"/></linearGradient><linearGradient id="gsecurity" x1="0" y1="1" x2="1" y2="0"><stop offset="0" stop-color="#B8132D"/><stop offset="1" stop-color="#F54749"/></linearGradient><linearGradient id="gcompute" x1="0" y1="1" x2="1" y2="0"><stop offset="0" stop-color="#C95A00"/><stop offset="1" stop-color="#F78E04"/></linearGradient><linearGradient id="ginteg" x1="0" y1="1" x2="1" y2="0"><stop offset="0" stop-color="#B80E63"/><stop offset="1" stop-color="#FF4F8B"/></linearGradient><linearGradient id="gnetwork" x1="0" y1="1" x2="1" y2="0"><stop offset="0" stop-color="#6B33D6"/><stop offset="1" stop-color="#A166FF"/></linearGradient><marker id="m7AA116" viewBox="0 0 10 10" refX="9" refY="5" markerWidth="9" markerHeight="9" markerUnits="userSpaceOnUse" orient="auto-start-reverse"><path d="M0 0 L10 5 L0 10 Z" fill="#7AA116"/></marker><marker id="mE6522C" viewBox="0 0 10 10" refX="9" refY="5" markerWidth="9" markerHeight="9" markerUnits="userSpaceOnUse" orient="auto-start-reverse"><path d="M0 0 L10 5 L0 10 Z" fill="#E6522C"/></marker><marker id="mFF4F8B" viewBox="0 0 10 10" refX="9" refY="5" markerWidth="9" markerHeight="9" markerUnits="userSpaceOnUse" orient="auto-start-reverse"><path d="M0 0 L10 5 L0 10 Z" fill="#FF4F8B"/></marker><marker id="m3b7fe6" viewBox="0 0 10 10" refX="9" refY="5" markerWidth="9" markerHeight="9" markerUnits="userSpaceOnUse" orient="auto-start-reverse"><path d="M0 0 L10 5 L0 10 Z" fill="#3b7fe6"/></marker></defs><rect width="100%" height="100%" fill="#000000"/><circle cx="90" cy="95" r="24.0" fill="#1f7ae0"/><circle cx="90" cy="89" r="8.5" fill="#fff"/><path d="M75 114 C75 101 105 101 105 114 Z" fill="#fff"/><text x="90" y="136.0" font-family="Inter, 'Helvetica Neue', Helvetica, Arial, sans-serif" font-size="12.5" fill="#f2f2f2" text-anchor="middle" font-weight="400"><tspan x="90" dy="0.0">Developer</tspan></text><g transform="translate(207.0,72.0) scale(1.9167)"><path d="M12 .297c-6.63 0-12 5.373-12 12 0 5.303 3.438 9.8 8.205 11.385.6.113.82-.258.82-.577 0-.285-.01-1.04-.015-2.04-3.338.724-4.042-1.61-4.042-1.61C4.422 18.07 3.633 17.7 3.633 17.7c-1.087-.744.084-.729.084-.729 1.205.084 1.838 1.236 1.838 1.236 1.07 1.835 2.809 1.305 3.495.998.108-.776.417-1.305.76-1.605-2.665-.3-5.466-1.332-5.466-5.93 0-1.31.465-2.38 1.235-3.22-.135-.303-.54-1.523.105-3.176 0 0 1.005-.322 3.3 1.23.96-.267 1.98-.399 3-.405 1.02.006 2.04.138 3 .405 2.28-1.552 3.285-1.23 3.285-1.23.645 1.653.24 2.873.12 3.176.765.84 1.23 1.91 1.23 3.22 0 4.61-2.805 5.625-5.475 5.92.42.36.81 1.096.81 2.22 0 1.606-.015 2.896-.015 3.286 0 .315.21.69.825.57C20.565 22.092 24 17.592 24 12.297c0-6.627-5.373-12-12-12" fill="#fff"/></g><text x="230" y="135.0" font-family="Inter, 'Helvetica Neue', Helvetica, Arial, sans-serif" font-size="12.5" fill="#f2f2f2" text-anchor="middle" font-weight="400"><tspan x="230" dy="0.0">GitHub</tspan></text><g transform="translate(373.0,73.0) scale(1.8333)"><path d="M10.984 13.836a.5.5 0 0 1-.353-.146l-.745-.743a.5.5 0 1 1 .706-.708l.392.391 1.181-1.18a.5.5 0 0 1 .708.707l-1.535 1.533a.504.504 0 0 1-.354.146zm9.353-.147l1.534-1.532a.5.5 0 0 0-.707-.707l-1.181 1.18-.392-.391a.5.5 0 1 0-.706.708l.746.743a.497.497 0 0 0 .706-.001zM4.527 7.452l2.557-1.585A1 1 0 0 0 7.09 4.17L4.533 2.56A1 1 0 0 0 3 3.406v3.196a1.001 1.001 0 0 0 1.527.85zm2.03-2.436L4 6.602V3.406l2.557 1.61zM24 12.5c0 1.93-1.57 3.5-3.5 3.5a3.503 3.503 0 0 1-3.46-3h-2.08a3.503 3.503 0 0 1-3.46 3 3.502 3.502 0 0 1-3.46-3h-.558c-.972 0-1.85-.399-2.482-1.042V17c0 1.654 1.346 3 3 3h.04c.244-1.693 1.7-3 3.46-3 1.93 0 3.5 1.57 3.5 3.5S13.43 24 11.5 24a3.502 3.502 0 0 1-3.46-3H8c-2.206 0-4-1.794-4-4V9.899A5.008 5.008 0 0 1 0 5c0-2.757 2.243-5 5-5s5 2.243 5 5a5.005 5.005 0 0 1-4.952 4.998A2.482 2.482 0 0 0 7.482 12h.558c.244-1.693 1.7-3 3.46-3a3.502 3.502 0 0 1 3.46 3h2.08a3.503 3.503 0 0 1 3.46-3c1.93 0 3.5 1.57 3.5 3.5zm-15 8c0 1.378 1.122 2.5 2.5 2.5s2.5-1.122 2.5-2.5-1.122-2.5-2.5-2.5S9 19.122 9 20.5zM5 9c2.206 0 4-1.794 4-4S7.206 1 5 1 1 2.794 1 5s1.794 4 4 4zm9 3.5c0-1.378-1.122-2.5-2.5-2.5S9 11.122 9 12.5s1.122 2.5 2.5 2.5 2.5-1.122 2.5-2.5zm9 0c0-1.378-1.122-2.5-2.5-2.5S18 11.122 18 12.5s1.122 2.5 2.5 2.5 2.5-1.122 2.5-2.5zm-13 8a.5.5 0 1 0 1 0 .5.5 0 0 0-1 0zm2 0a.5.5 0 1 0 1 0 .5.5 0 0 0-1 0zm12 0c0 1.93-1.57 3.5-3.5 3.5a3.503 3.503 0 0 1-3.46-3.002c-.007.001-.013.005-.021.005l-.506.017h-.017a.5.5 0 0 1-.016-.999l.506-.017c.018-.002.035.006.052.007A3.503 3.503 0 0 1 20.5 17c1.93 0 3.5 1.57 3.5 3.5zm-1 0c0-1.378-1.122-2.5-2.5-2.5S18 19.122 18 20.5s1.122 2.5 2.5 2.5 2.5-1.122 2.5-2.5z" fill="#2088FF"/></g><text x="395" y="134.0" font-family="Inter, 'Helvetica Neue', Helvetica, Arial, sans-serif" font-size="12.5" fill="#f2f2f2" text-anchor="middle" font-weight="400"><tspan x="395" dy="0.0">GitHub Actions</tspan></text><text x="395" y="151.25" font-family="Inter, 'Helvetica Neue', Helvetica, Arial, sans-serif" font-size="10.5" fill="#9aa4ad" text-anchor="middle" font-weight="400"><tspan x="395" dy="0.0">Trivy · cosign · SBOM · Checkov</tspan></text><g transform="translate(735.0,70.0) scale(2.0833)"><path d="M13.983 11.078h2.119a.186.186 0 00.186-.185V9.006a.186.186 0 00-.186-.186h-2.119a.185.185 0 00-.185.185v1.888c0 .102.083.185.185.185m-2.954-5.43h2.118a.186.186 0 00.186-.186V3.574a.186.186 0 00-.186-.185h-2.118a.185.185 0 00-.185.185v1.888c0 .102.082.185.185.185m0 2.716h2.118a.187.187 0 00.186-.186V6.29a.186.186 0 00-.186-.185h-2.118a.185.185 0 00-.185.185v1.887c0 .102.082.185.185.186m-2.93 0h2.12a.186.186 0 00.184-.186V6.29a.185.185 0 00-.185-.185H8.1a.185.185 0 00-.185.185v1.887c0 .102.083.185.185.186m-2.964 0h2.119a.186.186 0 00.185-.186V6.29a.185.185 0 00-.185-.185H5.136a.186.186 0 00-.186.185v1.887c0 .102.084.185.186.186m5.893 2.715h2.118a.186.186 0 00.186-.185V9.006a.186.186 0 00-.186-.186h-2.118a.185.185 0 00-.185.185v1.888c0 .102.082.185.185.185m-2.93 0h2.12a.185.185 0 00.184-.185V9.006a.185.185 0 00-.184-.186h-2.12a.185.185 0 00-.184.185v1.888c0 .102.083.185.185.185m-2.964 0h2.119a.185.185 0 00.185-.185V9.006a.185.185 0 00-.184-.186h-2.12a.186.186 0 00-.186.186v1.887c0 .102.084.185.186.185m-2.92 0h2.12a.185.185 0 00.184-.185V9.006a.185.185 0 00-.184-.186h-2.12a.185.185 0 00-.184.185v1.888c0 .102.082.185.185.185M23.763 9.89c-.065-.051-.672-.51-1.954-.51-.338.001-.676.03-1.01.087-.248-1.7-1.653-2.53-1.716-2.566l-.344-.199-.226.327c-.284.438-.49.922-.612 1.43-.23.97-.09 1.882.403 2.661-.595.332-1.55.413-1.744.42H.751a.751.751 0 00-.75.748 11.376 11.376 0 00.692 4.062c.545 1.428 1.355 2.48 2.41 3.124 1.18.723 3.1 1.137 5.275 1.137.983.003 1.963-.086 2.93-.266a12.248 12.248 0 003.823-1.389c.98-.567 1.86-1.288 2.61-2.136 1.252-1.418 1.998-2.997 2.553-4.4h.221c1.372 0 2.215-.549 2.68-1.009.309-.293.55-.65.707-1.046l.098-.288Z" fill="#2496ED"/></g><text x="760" y="137.0" font-family="Inter, 'Helvetica Neue', Helvetica, Arial, sans-serif" font-size="12.5" fill="#f2f2f2" text-anchor="middle" font-weight="400"><tspan x="760" dy="0.0">Docker build</tspan></text><text x="760" y="154.25" font-family="Inter, 'Helvetica Neue', Helvetica, Arial, sans-serif" font-size="10.5" fill="#9aa4ad" text-anchor="middle" font-weight="400"><tspan x="760" dy="0.0">multi-stage · distroless</tspan></text><g transform="translate(372.0,194.0) scale(1.9167)"><path d="M1.44 0v7.575l6.561 3.79V3.787zm21.12 4.227l-6.561 3.791v7.574l6.56-3.787zM8.72 4.23v7.575l6.561 3.787V8.018zm0 8.405v7.575L15.28 24v-7.578z" fill="#8C5BDB"/></g><text x="395" y="257.0" font-family="Inter, 'Helvetica Neue', Helvetica, Arial, sans-serif" font-size="12.5" fill="#f2f2f2" text-anchor="middle" font-weight="400"><tspan x="395" dy="0.0">Terraform</tspan></text><text x="395" y="274.25" font-family="Inter, 'Helvetica Neue', Helvetica, Arial, sans-serif" font-size="10.5" fill="#9aa4ad" text-anchor="middle" font-weight="400"><tspan x="395" dy="0.0">plan on PR · apply on merge</tspan></text><path d="M120 95 L200 95" fill="none" stroke="#f2f2f2" stroke-width="1.7" stroke-linejoin="miter" marker-end="url(#mf2f2f2)"/><text x="160" y="82" font-family="Inter, 'Helvetica Neue', Helvetica, Arial, sans-serif" font-size="10.5" fill="#9aa4ad" text-anchor="middle" font-weight="400"><tspan x="160" dy="0.0">git push</tspan></text><path d="M262 95 L365 95" fill="none" stroke="#f2f2f2" stroke-width="1.7" stroke-linejoin="miter" marker-end="url(#mf2f2f2)"/><path d="M425 95 L722 95" fill="none" stroke="#f2f2f2" stroke-width="1.7" stroke-linejoin="miter" marker-end="url(#mf2f2f2)"/><text x="575" y="82" font-family="Inter, 'Helvetica Neue', Helvetica, Arial, sans-serif" font-size="10.5" fill="#9aa4ad" text-anchor="middle" font-weight="400"><tspan x="575" dy="0.0">path-filtered build</tspan></text><path d="M395 162 L395 190" fill="none" stroke="#f2f2f2" stroke-width="1.7" stroke-linejoin="miter" marker-end="url(#mf2f2f2)"/><path d="M395 66 L395 26 L1580 26 L1580 316" fill="none" stroke="#F54749" stroke-width="1.7" stroke-linejoin="miter" stroke-dasharray="6 4" marker-end="url(#mF54749)"/><text x="990" y="18" font-family="Inter, 'Helvetica Neue', Helvetica, Arial, sans-serif" font-size="11.5" fill="#F54749" text-anchor="middle" font-weight="400"><tspan x="990" dy="0.0">OIDC federation · no long-lived AWS keys</tspan></text><path d="M230 150 L230 268 L28 268 L28 810 L322 810" fill="none" stroke="#f2f2f2" stroke-width="1.7" stroke-linejoin="miter" stroke-dasharray="6 4" marker-end="url(#mf2f2f2)"/><text x="18" y="560" font-family="Inter, 'Helvetica Neue', Helvetica, Arial, sans-serif" font-size="11" fill="#9aa4ad" text-anchor="middle" font-weight="400" transform="rotate(-90 18 560)"><tspan x="18" dy="0.0">Git commit: image tag in values-dev.yaml</tspan></text><rect x="60" y="292" width="1560" height="1313" rx="0" fill="none" stroke="#9aa4ad" stroke-width="1.6" opacity="1"/><g transform="translate(66,296)"><rect width="26" height="26" fill="#2b3036"/><path d="M8 18 H19 A4 4 0 0 0 19 10 A5.5 5.5 0 0 0 9 12 A3 3 0 0 0 8 18 Z" fill="none" stroke="#c9d1d9" stroke-width="1.5"/></g><text x="94" y="314" font-family="Inter, 'Helvetica Neue', Helvetica, Arial, sans-serif" font-size="12.5" fill="#c9d1d9" text-anchor="start" font-weight="400"><tspan x="94" dy="0.0">AWS Cloud</tspan></text><rect x="497.0" y="317.0" width="46" height="46" rx="5" fill="url(#gstorage)"/><g transform="translate(497.0,317.0) scale(0.9583)" fill="none" stroke="#fff" stroke-width="2.6" stroke-linecap="round" stroke-linejoin="round"><ellipse cx="24" cy="14" rx="12" ry="4.2"/><path d="M12 14 L15 35 Q24 40.5 33 35 L36 14"/></g><text x="520" y="380.0" font-family="Inter, 'Helvetica Neue', Helvetica, Arial, sans-serif" font-size="12.5" fill="#f2f2f2" text-anchor="middle" font-weight="400"><tspan x="520" dy="0.0">S3</tspan></text><text x="520" y="397.25" font-family="Inter, 'Helvetica Neue', Helvetica, Arial, sans-serif" font-size="10.5" fill="#9aa4ad" text-anchor="middle" font-weight="400"><tspan x="520" dy="0.0">Terraform state</tspan></text><rect x="627.0" y="317.0" width="46" height="46" rx="5" fill="url(#gdb)"/><g transform="translate(627.0,317.0) scale(0.9583)" fill="none" stroke="#fff" stroke-width="2.6" stroke-linecap="round" stroke-linejoin="round"><ellipse cx="24" cy="13" rx="12" ry="4.5"/><path d="M12 13 V35 C12 38 17 40 24 40 C31 40 36 38 36 35 V13"/><path d="M12 24 C12 27 17 29 24 29 C31 29 36 27 36 24"/></g><text x="650" y="380.0" font-family="Inter, 'Helvetica Neue', Helvetica, Arial, sans-serif" font-size="12.5" fill="#f2f2f2" text-anchor="middle" font-weight="400"><tspan x="650" dy="0.0">DynamoDB</tspan></text><text x="650" y="397.25" font-family="Inter, 'Helvetica Neue', Helvetica, Arial, sans-serif" font-size="10.5" fill="#9aa4ad" text-anchor="middle" font-weight="400"><tspan x="650" dy="0.0">state lock</tspan></text><rect x="1557.0" y="317.0" width="46" height="46" rx="5" fill="url(#gsecurity)"/><g transform="translate(1557.0,317.0) scale(0.9583)" fill="none" stroke="#fff" stroke-width="2.6" stroke-linecap="round" stroke-linejoin="round"><circle cx="16" cy="24" r="6.5"/><path d="M22.5 24 H38 M33 24 V30 M38 24 V29"/></g><text x="1580" y="380.0" font-family="Inter, 'Helvetica Neue', Helvetica, Arial, sans-serif" font-size="12.5" fill="#f2f2f2" text-anchor="middle" font-weight="400"><tspan x="1580" dy="0.0">IAM</tspan></text><text x="1580" y="397.25" font-family="Inter, 'Helvetica Neue', Helvetica, Arial, sans-serif" font-size="10.5" fill="#9aa4ad" text-anchor="middle" font-weight="400"><tspan x="1580" dy="0.0">OIDC role</tspan></text><path d="M427 217 L520 217 L520 318" fill="none" stroke="#f2f2f2" stroke-width="1.7" stroke-linejoin="miter" marker-end="url(#mf2f2f2)"/><path d="M520 217 L650 217 L650 318" fill="none" stroke="#f2f2f2" stroke-width="1.7" stroke-linejoin="miter" stroke-dasharray="4 4" marker-end="url(#mf2f2f2)"/><rect x="100" y="410" width="1480" height="1130" rx="0" fill="none" stroke="#9aa4ad" stroke-width="1.5" stroke-dasharray="6 5" opacity="1"/><g transform="translate(106,414)"><rect width="26" height="26" fill="#2b3036"/><path d="M8 20 V7 M8 8 H19 L16.5 11 L19 14 H8" fill="none" stroke="#c9d1d9" stroke-width="1.5"/></g><text x="134" y="432" font-family="Inter, 'Helvetica Neue', Helvetica, Arial, sans-serif" font-size="12.5" fill="#c9d1d9" text-anchor="start" font-weight="400"><tspan x="134" dy="0.0">Region: eu-west-2 (London)</tspan></text><rect x="737.0" y="455.0" width="46" height="46" rx="5" fill="url(#gcompute)"/><g transform="translate(737.0,455.0) scale(0.9583)" fill="none" stroke="#fff" stroke-width="2.6" stroke-linecap="round" stroke-linejoin="round"><path d="M24 9 L37 16.5 V31.5 L24 39 L11 31.5 V16.5 Z"/><path d="M24 24 V39 M11 16.5 L24 24 L37 16.5"/></g><text x="793.0" y="475" font-family="Inter, 'Helvetica Neue', Helvetica, Arial, sans-serif" font-size="12.5" fill="#f2f2f2" text-anchor="start" font-weight="400"><tspan x="793.0" dy="0.0">ECR</tspan></text><text x="793.0" y="490" font-family="Inter, 'Helvetica Neue', Helvetica, Arial, sans-serif" font-size="10.5" fill="#9aa4ad" text-anchor="start" font-weight="400"><tspan x="793.0" dy="0.0">immutable SHA tags</tspan></text><rect x="937.0" y="455.0" width="46" height="46" rx="5" fill="url(#ginteg)"/><g transform="translate(937.0,455.0) scale(0.9583)" fill="none" stroke="#fff" stroke-width="2.6" stroke-linecap="round" stroke-linejoin="round"><rect x="9" y="12" width="30" height="9" rx="2"/><rect x="9" y="27" width="30" height="9" rx="2"/><path d="M15 16.5 H22 M15 31.5 H22 M30 16.5 H34"/></g><text x="993.0" y="475" font-family="Inter, 'Helvetica Neue', Helvetica, Arial, sans-serif" font-size="12.5" fill="#f2f2f2" text-anchor="start" font-weight="400"><tspan x="993.0" dy="0.0">SQS</tspan></text><text x="993.0" y="490" font-family="Inter, 'Helvetica Neue', Helvetica, Arial, sans-serif" font-size="10.5" fill="#9aa4ad" text-anchor="start" font-weight="400"><tspan x="993.0" dy="0.0">event bus + DLQ</tspan></text><rect x="1377.0" y="455.0" width="46" height="46" rx="5" fill="url(#gsecurity)"/><g transform="translate(1377.0,455.0) scale(0.9583)" fill="none" stroke="#fff" stroke-width="2.6" stroke-linecap="round" stroke-linejoin="round"><rect x="12" y="22" width="24" height="17" rx="3"/><path d="M17 22 V17 A7 7 0 0 1 31 17 V22"/><circle cx="24" cy="30.5" r="2.4" fill="#fff"/></g><text x="1433.0" y="482" font-family="Inter, 'Helvetica Neue', Helvetica, Arial, sans-serif" font-size="12.5" fill="#f2f2f2" text-anchor="start" font-weight="400"><tspan x="1433.0" dy="0.0">Secrets Manager</tspan></text><path d="M760 160 L760 454" fill="none" stroke="#f2f2f2" stroke-width="1.7" stroke-linejoin="miter" marker-end="url(#mf2f2f2)"/><g><rect x="768.0" y="250.5" width="260.8" height="16.8" fill="#000000" opacity="0.92"/><text x="772" y="262" font-family="Inter, 'Helvetica Neue', Helvetica, Arial, sans-serif" font-size="10.5" fill="#9aa4ad" text-anchor="start" font-weight="400"><tspan x="772" dy="0.0">docker push · cosign-signed · Trivy-scanned</tspan></text></g><rect x="130" y="555" width="1420" height="925" rx="0" fill="none" stroke="#8C4FFF" stroke-width="1.8" opacity="1"/><g transform="translate(136,559)"><rect width="26" height="26" fill="#8C4FFF"/><path d="M7 17 H18 A3.5 3.5 0 0 0 18 10 A5 5 0 0 0 9 12 A2.7 2.7 0 0 0 7 17 Z" fill="none" stroke="#fff" stroke-width="1.4"/><rect x="11" y="15" width="6" height="5" fill="#8C4FFF" stroke="#fff" stroke-width="1.2"/></g><text x="164" y="577" font-family="Inter, 'Helvetica Neue', Helvetica, Arial, sans-serif" font-size="12.5" fill="#a98bff" text-anchor="start" font-weight="400"><tspan x="164" dy="0.0">VPC</tspan></text><rect x="170" y="590" width="1340" height="62" rx="0" fill="#14111f" stroke="#6b4bb5" stroke-width="1.2" stroke-dasharray="4 3" opacity="1"/><rect x="188.0" y="604.0" width="34" height="34" rx="5" fill="url(#gnetwork)"/><g transform="translate(188.0,604.0) scale(0.7083)" fill="none" stroke="#fff" stroke-width="2.6" stroke-linecap="round" stroke-linejoin="round"><path d="M8 24 H19 M29 24 H40"/><rect x="19" y="16" width="10" height="16" rx="2.5"/><circle cx="8" cy="24" r="1.6" fill="#fff"/><circle cx="40" cy="24" r="1.6" fill="#fff"/></g><text x="236" y="614" font-family="Inter, 'Helvetica Neue', Helvetica, Arial, sans-serif" font-size="11.5" fill="#c8b7ff" text-anchor="start" font-weight="600"><tspan x="236" dy="0.0">VPC endpoints: no NAT egress for data-plane traffic</tspan></text><text x="236" y="631" font-family="Inter, 'Helvetica Neue', Helvetica, Arial, sans-serif" font-size="10.5" fill="#9aa4ad" text-anchor="start" font-weight="400"><tspan x="236" dy="0.0">ECR · S3 · SQS · Secrets Manager · STS · CloudWatch · EBS · EC2</tspan></text><rect x="170" y="670" width="1340" height="440" rx="0" fill="#0e262b" stroke="#2fa7b2" stroke-width="1.5" opacity="1"/><g transform="translate(176,674)"><rect width="22" height="22" fill="#2fa7b2"/><rect x="6" y="10.5" width="10" height="7.5" rx="1" fill="none" stroke="#000" stroke-width="1.4"/><path d="M8 10.5 V8 A3 3 0 0 1 14 8 V10.5" fill="none" stroke="#000" stroke-width="1.4"/></g><text x="202" y="692" font-family="Inter, 'Helvetica Neue', Helvetica, Arial, sans-serif" font-size="12.5" fill="#4fc3cf" text-anchor="start" font-weight="400"><tspan x="202" dy="0.0">Private subnets</tspan></text><text x="1496" y="692" font-family="Inter, 'Helvetica Neue', Helvetica, Arial, sans-serif" font-size="11.5" fill="#c9d1d9" text-anchor="end" font-weight="400"><tspan x="1496" dy="0.0">eu-west-2a / 2b / 2c</tspan></text><rect x="195" y="715" width="295" height="375" rx="0" fill="none" stroke="#3a6f78" stroke-width="1.5" stroke-dasharray="4 3" opacity="1"/><text x="207" y="737" font-family="Inter, 'Helvetica Neue', Helvetica, Arial, sans-serif" font-size="11.5" fill="#9fd8de" text-anchor="start" font-weight="400"><tspan x="207" dy="0.0">EKS data plane</tspan></text><text x="207" y="756" font-family="Inter, 'Helvetica Neue', Helvetica, Arial, sans-serif" font-size="10" fill="#9aa4ad" text-anchor="start" font-weight="400"><tspan x="207" dy="0.0">Karpenter · t3.small on-demand · EKS 1.33</tspan></text><g transform="translate(323.0,788.0) scale(1.8333)"><path d="M12.581 0c.436.037.871.1 1.299.186 1.679.383 3.121 1.213 4.382 2.365 1.161 1.06 1.917 2.372 2.335 3.881.089.321.216.56.586.624.205.035.238.245.239.43.003.646.002 1.294.002 1.94l-.002 1.21c-.001.356-.116.479-.466.474-.211-.003-.293.119-.344.291-.146.489-.33.966-.552 1.426-.818 1.682-2.084 2.938-3.688 3.87-.077.045-.155.088-.233.131-.252.137-.258.146-.155.415.114.299.358.529.664.625.269.096.553.134.827.21a.672.672 0 0 1 .236.094c-.066.082-.156.067-.231.082-.36.073-.713.184-1.086.17a1.275 1.275 0 0 1-.438-.064c-.114-.045-.152-.006-.176.109a5.354 5.354 0 0 0-.084.92c-.015.617-.071 1.23-.112 1.844-.042.598-.018.651.558.842.281.094.563.187.842.286.069.024.15.038.192.117-.04.057-.098.035-.146.035-.493.003-.985.005-1.478.001-.524-.005-.806-.282-.845-.803-.055-.762-.12-1.524-.182-2.286a.947.947 0 0 0-.026-.12c-.079.455-.065.879-.084 1.298-.023.528-.008 1.057-.007 1.584 0 .27.086.388.335.483.359.135.711.295 1.114.262.141-.012.276.062.402.129.032.017.073.033.069.073-.004.043-.049.047-.084.045-.657-.019-1.317.065-1.972-.028-.323-.046-.533-.236-.631-.552-.094-.303-.114-.617-.137-.93-.046-.626-.078-1.253-.116-1.88a.222.222 0 0 0-.061-.171.282.282 0 0 0-.031.193c-.002.956-.002 1.911-.001 2.866 0 .388.123.575.494.708.481.172.976.298 1.47.423.11.028.225.047.242.192h-1.852c-.051-.01-.103-.022-.155-.03-.701-.1-1.001-.372-1.143-1.042l-.067-.331-.226-1.103c-.069.12-.118.25-.144.386-.083.399-.151.802-.243 1.2-.113.493-.444.763-.932.857l-.33.063H8.558c.057-.171.216-.185.355-.221.476-.127.96-.223 1.417-.409a.603.603 0 0 0 .397-.521c.058-.435.002-.865-.013-1.296a1.528 1.528 0 0 0-.078-.315.405.405 0 0 0-.071.207c-.026.296-.049.591-.075.886-.038.432-.273.716-.679.81a1.702 1.702 0 0 1-.37.045c-.557.003-1.115-.001-1.673-.005-.048 0-.109.019-.148-.065.178-.103.377-.168.582-.187a5.67 5.67 0 0 0 .939-.193c.42-.114.522-.249.512-.687-.023-.931-.091-1.86-.069-2.791.004-.184.001-.368.001-.551a2.387 2.387 0 0 0-.05.385 40.299 40.299 0 0 1-.186 2.623c-.052.513-.296.748-.804.805-.446.051-.889.002-1.332-.02-.108-.006-.234.012-.339-.064.043-.066.106-.07.16-.087.362-.115.725-.224 1.086-.344.246-.081.35-.235.355-.492a2.241 2.241 0 0 0-.003-.232 45.315 45.315 0 0 1-.105-2.149 5.487 5.487 0 0 0-.035-.478c-.024-.188-.131-.287-.295-.258-.505.092-.99-.006-1.473-.139-.059-.016-.134-.007-.178-.088a.986.986 0 0 1 .285-.09c.255-.052.507-.121.753-.208.312-.112.564-.347.695-.651.089-.203.056-.317-.112-.398-1.418-.683-2.512-1.73-3.391-3.017a8.152 8.152 0 0 1-1.123-2.447c-.067-.246-.156-.3-.383-.26-.306.053-.401.006-.535-.273v-3.49c.144-.303.205-.341.534-.329.235.01.247-.004.309-.242.396-1.508 1.082-2.861 2.171-3.988C6.9 1.42 8.523.631 10.34.203c.456-.108.922-.15 1.387-.203h.854Zm7.974 8.948a7.34 7.34 0 0 0-.048-.938 8.353 8.353 0 0 0-.099-.65c-.598-2.964-2.344-5.02-5.051-6.268-1.553-.715-3.21-.835-4.878-.511-3.248.633-5.396 2.583-6.539 5.652-.436 1.173-.495 2.406-.37 3.65.087.935.339 1.846.745 2.694.585 1.213 1.444 2.207 2.477 3.058.343.286.719.528 1.121.719.235.111.247.105.245-.146.006-.16.003-.32-.009-.48-.125-1.02-.142-2.045-.169-3.069a.392.392 0 0 0-.184-.353c-.385-.268-.713-.592-.921-1.019-.474-.97-.372-2.361.813-3.215.136-.097.217-.19.198-.373a1.724 1.724 0 0 1 .031-.442c.177-1.187.748-2.138 1.722-2.84.68-.492 1.442-.772 2.286-.782.483-.007.953.11 1.414.244 1.609.467 2.846 2.07 2.845 3.697a.64.64 0 0 0 .268.565c.463.371.821.83.943 1.426.22 1.077-.083 1.982-.979 2.634-.266.194-.347.406-.333.698.002.047 0 .095-.002.142l-.062 1.439c-.025.586-.138 1.165-.117 1.754.008.223.006.226.201.128a7.46 7.46 0 0 0 2.393-1.903c1.32-1.577 2.074-3.372 2.059-5.511ZM9.117 12.102c1.489.021 2.443-1.578 1.716-2.879a1.937 1.937 0 0 0-1.699-.991c-1.094-.004-1.954.822-1.958 1.881-.005 1.148.813 1.985 1.941 1.989Zm5.794 0c1.101.002 1.935-.823 1.935-1.917 0-1.091-.846-1.949-1.92-1.947-1.064.003-1.94.866-1.943 1.915-.003 1.105.831 1.948 1.928 1.949Zm-1.472 1.937c-.208.128-.407.277-.63.384-.536.257-1.063.257-1.579-.048-.158-.094-.308-.201-.464-.298-.047-.028-.092-.103-.15-.062-.044.03-.01.1-.001.151.037.179.064.362.082.544.027.565.293.992.742 1.31a.984.984 0 0 0 .791.186c.565-.119 1.025-.614 1.124-1.218.043-.266.005-.544.109-.803a.133.133 0 0 0-.024-.146Zm-8.78-4.92c-.012-1.102.143-2.055.54-2.961.633-1.443 1.642-2.553 2.98-3.374a.378.378 0 0 1 .459.067c.06.06.036.118.01.178a1.09 1.09 0 0 1-.48.51c-1.079.639-1.829 1.571-2.357 2.688a6.325 6.325 0 0 0-.618 2.986c.055 1.309.439 2.516 1.213 3.588.088.104.148.23.173.365.01.08.059.168-.031.228a.312.312 0 0 1-.288.041.502.502 0 0 1-.234-.185c-.72-.979-1.193-2.056-1.331-3.273-.036-.326-.004-.653-.036-.858ZM8.94 2.34a.373.373 0 0 1 .378-.382c.211.001.409.226.416.473.004.138-.309.39-.476.386-.189-.005-.318-.2-.318-.477Zm-.465 7.48a.609.609 0 0 1 .586-.631c.38-.003.671.271.675.633.004.356-.27.622-.639.621-.38-.002-.621-.241-.622-.623Zm6.496.623c-.381-.002-.625-.255-.621-.646a.635.635 0 0 1 .596-.613.656.656 0 0 1 .669.643c.001.354-.275.618-.644.616Z" fill="#EF7B4D"/></g><text x="345" y="849.0" font-family="Inter, 'Helvetica Neue', Helvetica, Arial, sans-serif" font-size="12.5" fill="#f2f2f2" text-anchor="middle" font-weight="400"><tspan x="345" dy="0.0">ArgoCD</tspan></text><text x="345" y="866.25" font-family="Inter, 'Helvetica Neue', Helvetica, Arial, sans-serif" font-size="10.5" fill="#9aa4ad" text-anchor="middle" font-weight="400"><tspan x="345" dy="0.0">app-of-apps sync</tspan></text><circle cx="345" cy="930" r="22.0" fill="#326CE5"/><g transform="translate(330.18,915.18) scale(1.2350)"><path d="M10.204 14.35l.007.01-.999 2.413a5.171 5.171 0 0 1-2.075-2.597l2.578-.437.004.005a.44.44 0 0 1 .484.606zm-.833-2.129a.44.44 0 0 0 .173-.756l.002-.011L7.585 9.7a5.143 5.143 0 0 0-.73 3.255l2.514-.725.002-.009zm1.145-1.98a.44.44 0 0 0 .699-.337l.01-.005.15-2.62a5.144 5.144 0 0 0-3.01 1.442l2.147 1.523.004-.002zm.76 2.75l.723.349.722-.347.18-.78-.5-.623h-.804l-.5.623.179.779zm1.5-3.095a.44.44 0 0 0 .7.336l.008.003 2.134-1.513a5.188 5.188 0 0 0-2.992-1.442l.148 2.615.002.001zm10.876 5.97l-5.773 7.181a1.6 1.6 0 0 1-1.248.594l-9.261.003a1.6 1.6 0 0 1-1.247-.596l-5.776-7.18a1.583 1.583 0 0 1-.307-1.34L2.1 5.573c.108-.47.425-.864.863-1.073L11.305.513a1.606 1.606 0 0 1 1.385 0l8.345 3.985c.438.209.755.604.863 1.073l2.062 8.955c.108.47-.005.963-.308 1.34zm-3.289-2.057c-.042-.01-.103-.026-.145-.034-.174-.033-.315-.025-.479-.038-.35-.037-.638-.067-.895-.148-.105-.04-.18-.165-.216-.216l-.201-.059a6.45 6.45 0 0 0-.105-2.332 6.465 6.465 0 0 0-.936-2.163c.052-.047.15-.133.177-.159.008-.09.001-.183.094-.282.197-.185.444-.338.743-.522.142-.084.273-.137.415-.242.032-.024.076-.062.11-.089.24-.191.295-.52.123-.736-.172-.216-.506-.236-.745-.045-.034.027-.08.062-.111.088-.134.116-.217.23-.33.35-.246.25-.45.458-.673.609-.097.056-.239.037-.303.033l-.19.135a6.545 6.545 0 0 0-4.146-2.003l-.012-.223c-.065-.062-.143-.115-.163-.25-.022-.268.015-.557.057-.905.023-.163.061-.298.068-.475.001-.04-.001-.099-.001-.142 0-.306-.224-.555-.5-.555-.275 0-.499.249-.499.555l.001.014c0 .041-.002.092 0 .128.006.177.044.312.067.475.042.348.078.637.056.906a.545.545 0 0 1-.162.258l-.012.211a6.424 6.424 0 0 0-4.166 2.003 8.373 8.373 0 0 1-.18-.128c-.09.012-.18.04-.297-.029-.223-.15-.427-.358-.673-.608-.113-.12-.195-.234-.329-.349-.03-.026-.077-.062-.111-.088a.594.594 0 0 0-.348-.132.481.481 0 0 0-.398.176c-.172.216-.117.546.123.737l.007.005.104.083c.142.105.272.159.414.242.299.185.546.338.743.522.076.082.09.226.1.288l.16.143a6.462 6.462 0 0 0-1.02 4.506l-.208.06c-.055.072-.133.184-.215.217-.257.081-.546.11-.895.147-.164.014-.305.006-.48.039-.037.007-.09.02-.133.03l-.004.002-.007.002c-.295.071-.484.342-.423.608.061.267.349.429.645.365l.007-.001.01-.003.129-.029c.17-.046.294-.113.448-.172.33-.118.604-.217.87-.256.112-.009.23.069.288.101l.217-.037a6.5 6.5 0 0 0 2.88 3.596l-.09.218c.033.084.069.199.044.282-.097.252-.263.517-.452.813-.091.136-.185.242-.268.399-.02.037-.045.095-.064.134-.128.275-.034.591.213.71.248.12.556-.007.69-.282v-.002c.02-.039.046-.09.062-.127.07-.162.094-.301.144-.458.132-.332.205-.68.387-.897.05-.06.13-.082.215-.105l.113-.205a6.453 6.453 0 0 0 4.609.012l.106.192c.086.028.18.042.256.155.136.232.229.507.342.84.05.156.074.295.145.457.016.037.043.09.062.129.133.276.442.402.69.282.247-.118.341-.435.213-.71-.02-.039-.045-.096-.065-.134-.083-.156-.177-.261-.268-.398-.19-.296-.346-.541-.443-.793-.04-.13.007-.21.038-.294-.018-.022-.059-.144-.083-.202a6.499 6.499 0 0 0 2.88-3.622c.064.01.176.03.213.038.075-.05.144-.114.28-.104.266.039.54.138.87.256.154.06.277.128.448.173.036.01.088.019.13.028l.009.003.007.001c.297.064.584-.098.645-.365.06-.266-.128-.537-.423-.608zM16.4 9.701l-1.95 1.746v.005a.44.44 0 0 0 .173.757l.003.01 2.526.728a5.199 5.199 0 0 0-.108-1.674A5.208 5.208 0 0 0 16.4 9.7zm-4.013 5.325a.437.437 0 0 0-.404-.232.44.44 0 0 0-.372.233h-.002l-1.268 2.292a5.164 5.164 0 0 0 3.326.003l-1.27-2.296h-.01zm1.888-1.293a.44.44 0 0 0-.27.036.44.44 0 0 0-.214.572l-.003.004 1.01 2.438a5.15 5.15 0 0 0 2.081-2.615l-2.6-.44-.004.005z" fill="#fff"/></g><text x="378" y="927" font-family="Inter, 'Helvetica Neue', Helvetica, Arial, sans-serif" font-size="11.5" fill="#f2f2f2" text-anchor="start" font-weight="400"><tspan x="378" dy="0.0">ClusterIP</tspan></text><text x="378" y="941" font-family="Inter, 'Helvetica Neue', Helvetica, Arial, sans-serif" font-size="11.5" fill="#f2f2f2" text-anchor="start" font-weight="400"><tspan x="378" dy="0.0">Services</tspan></text><circle cx="250" cy="1042" r="18.0" fill="#326CE5"/><g transform="translate(238.3,1030.3) scale(0.9750)"><path d="M10.204 14.35l.007.01-.999 2.413a5.171 5.171 0 0 1-2.075-2.597l2.578-.437.004.005a.44.44 0 0 1 .484.606zm-.833-2.129a.44.44 0 0 0 .173-.756l.002-.011L7.585 9.7a5.143 5.143 0 0 0-.73 3.255l2.514-.725.002-.009zm1.145-1.98a.44.44 0 0 0 .699-.337l.01-.005.15-2.62a5.144 5.144 0 0 0-3.01 1.442l2.147 1.523.004-.002zm.76 2.75l.723.349.722-.347.18-.78-.5-.623h-.804l-.5.623.179.779zm1.5-3.095a.44.44 0 0 0 .7.336l.008.003 2.134-1.513a5.188 5.188 0 0 0-2.992-1.442l.148 2.615.002.001zm10.876 5.97l-5.773 7.181a1.6 1.6 0 0 1-1.248.594l-9.261.003a1.6 1.6 0 0 1-1.247-.596l-5.776-7.18a1.583 1.583 0 0 1-.307-1.34L2.1 5.573c.108-.47.425-.864.863-1.073L11.305.513a1.606 1.606 0 0 1 1.385 0l8.345 3.985c.438.209.755.604.863 1.073l2.062 8.955c.108.47-.005.963-.308 1.34zm-3.289-2.057c-.042-.01-.103-.026-.145-.034-.174-.033-.315-.025-.479-.038-.35-.037-.638-.067-.895-.148-.105-.04-.18-.165-.216-.216l-.201-.059a6.45 6.45 0 0 0-.105-2.332 6.465 6.465 0 0 0-.936-2.163c.052-.047.15-.133.177-.159.008-.09.001-.183.094-.282.197-.185.444-.338.743-.522.142-.084.273-.137.415-.242.032-.024.076-.062.11-.089.24-.191.295-.52.123-.736-.172-.216-.506-.236-.745-.045-.034.027-.08.062-.111.088-.134.116-.217.23-.33.35-.246.25-.45.458-.673.609-.097.056-.239.037-.303.033l-.19.135a6.545 6.545 0 0 0-4.146-2.003l-.012-.223c-.065-.062-.143-.115-.163-.25-.022-.268.015-.557.057-.905.023-.163.061-.298.068-.475.001-.04-.001-.099-.001-.142 0-.306-.224-.555-.5-.555-.275 0-.499.249-.499.555l.001.014c0 .041-.002.092 0 .128.006.177.044.312.067.475.042.348.078.637.056.906a.545.545 0 0 1-.162.258l-.012.211a6.424 6.424 0 0 0-4.166 2.003 8.373 8.373 0 0 1-.18-.128c-.09.012-.18.04-.297-.029-.223-.15-.427-.358-.673-.608-.113-.12-.195-.234-.329-.349-.03-.026-.077-.062-.111-.088a.594.594 0 0 0-.348-.132.481.481 0 0 0-.398.176c-.172.216-.117.546.123.737l.007.005.104.083c.142.105.272.159.414.242.299.185.546.338.743.522.076.082.09.226.1.288l.16.143a6.462 6.462 0 0 0-1.02 4.506l-.208.06c-.055.072-.133.184-.215.217-.257.081-.546.11-.895.147-.164.014-.305.006-.48.039-.037.007-.09.02-.133.03l-.004.002-.007.002c-.295.071-.484.342-.423.608.061.267.349.429.645.365l.007-.001.01-.003.129-.029c.17-.046.294-.113.448-.172.33-.118.604-.217.87-.256.112-.009.23.069.288.101l.217-.037a6.5 6.5 0 0 0 2.88 3.596l-.09.218c.033.084.069.199.044.282-.097.252-.263.517-.452.813-.091.136-.185.242-.268.399-.02.037-.045.095-.064.134-.128.275-.034.591.213.71.248.12.556-.007.69-.282v-.002c.02-.039.046-.09.062-.127.07-.162.094-.301.144-.458.132-.332.205-.68.387-.897.05-.06.13-.082.215-.105l.113-.205a6.453 6.453 0 0 0 4.609.012l.106.192c.086.028.18.042.256.155.136.232.229.507.342.84.05.156.074.295.145.457.016.037.043.09.062.129.133.276.442.402.69.282.247-.118.341-.435.213-.71-.02-.039-.045-.096-.065-.134-.083-.156-.177-.261-.268-.398-.19-.296-.346-.541-.443-.793-.04-.13.007-.21.038-.294-.018-.022-.059-.144-.083-.202a6.499 6.499 0 0 0 2.88-3.622c.064.01.176.03.213.038.075-.05.144-.114.28-.104.266.039.54.138.87.256.154.06.277.128.448.173.036.01.088.019.13.028l.009.003.007.001c.297.064.584-.098.645-.365.06-.266-.128-.537-.423-.608zM16.4 9.701l-1.95 1.746v.005a.44.44 0 0 0 .173.757l.003.01 2.526.728a5.199 5.199 0 0 0-.108-1.674A5.208 5.208 0 0 0 16.4 9.7zm-4.013 5.325a.437.437 0 0 0-.404-.232.44.44 0 0 0-.372.233h-.002l-1.268 2.292a5.164 5.164 0 0 0 3.326.003l-1.27-2.296h-.01zm1.888-1.293a.44.44 0 0 0-.27.036.44.44 0 0 0-.214.572l-.003.004 1.01 2.438a5.15 5.15 0 0 0 2.081-2.615l-2.6-.44-.004.005z" fill="#fff"/></g><circle cx="345" cy="1042" r="18.0" fill="#326CE5"/><g transform="translate(333.3,1030.3) scale(0.9750)"><path d="M10.204 14.35l.007.01-.999 2.413a5.171 5.171 0 0 1-2.075-2.597l2.578-.437.004.005a.44.44 0 0 1 .484.606zm-.833-2.129a.44.44 0 0 0 .173-.756l.002-.011L7.585 9.7a5.143 5.143 0 0 0-.73 3.255l2.514-.725.002-.009zm1.145-1.98a.44.44 0 0 0 .699-.337l.01-.005.15-2.62a5.144 5.144 0 0 0-3.01 1.442l2.147 1.523.004-.002zm.76 2.75l.723.349.722-.347.18-.78-.5-.623h-.804l-.5.623.179.779zm1.5-3.095a.44.44 0 0 0 .7.336l.008.003 2.134-1.513a5.188 5.188 0 0 0-2.992-1.442l.148 2.615.002.001zm10.876 5.97l-5.773 7.181a1.6 1.6 0 0 1-1.248.594l-9.261.003a1.6 1.6 0 0 1-1.247-.596l-5.776-7.18a1.583 1.583 0 0 1-.307-1.34L2.1 5.573c.108-.47.425-.864.863-1.073L11.305.513a1.606 1.606 0 0 1 1.385 0l8.345 3.985c.438.209.755.604.863 1.073l2.062 8.955c.108.47-.005.963-.308 1.34zm-3.289-2.057c-.042-.01-.103-.026-.145-.034-.174-.033-.315-.025-.479-.038-.35-.037-.638-.067-.895-.148-.105-.04-.18-.165-.216-.216l-.201-.059a6.45 6.45 0 0 0-.105-2.332 6.465 6.465 0 0 0-.936-2.163c.052-.047.15-.133.177-.159.008-.09.001-.183.094-.282.197-.185.444-.338.743-.522.142-.084.273-.137.415-.242.032-.024.076-.062.11-.089.24-.191.295-.52.123-.736-.172-.216-.506-.236-.745-.045-.034.027-.08.062-.111.088-.134.116-.217.23-.33.35-.246.25-.45.458-.673.609-.097.056-.239.037-.303.033l-.19.135a6.545 6.545 0 0 0-4.146-2.003l-.012-.223c-.065-.062-.143-.115-.163-.25-.022-.268.015-.557.057-.905.023-.163.061-.298.068-.475.001-.04-.001-.099-.001-.142 0-.306-.224-.555-.5-.555-.275 0-.499.249-.499.555l.001.014c0 .041-.002.092 0 .128.006.177.044.312.067.475.042.348.078.637.056.906a.545.545 0 0 1-.162.258l-.012.211a6.424 6.424 0 0 0-4.166 2.003 8.373 8.373 0 0 1-.18-.128c-.09.012-.18.04-.297-.029-.223-.15-.427-.358-.673-.608-.113-.12-.195-.234-.329-.349-.03-.026-.077-.062-.111-.088a.594.594 0 0 0-.348-.132.481.481 0 0 0-.398.176c-.172.216-.117.546.123.737l.007.005.104.083c.142.105.272.159.414.242.299.185.546.338.743.522.076.082.09.226.1.288l.16.143a6.462 6.462 0 0 0-1.02 4.506l-.208.06c-.055.072-.133.184-.215.217-.257.081-.546.11-.895.147-.164.014-.305.006-.48.039-.037.007-.09.02-.133.03l-.004.002-.007.002c-.295.071-.484.342-.423.608.061.267.349.429.645.365l.007-.001.01-.003.129-.029c.17-.046.294-.113.448-.172.33-.118.604-.217.87-.256.112-.009.23.069.288.101l.217-.037a6.5 6.5 0 0 0 2.88 3.596l-.09.218c.033.084.069.199.044.282-.097.252-.263.517-.452.813-.091.136-.185.242-.268.399-.02.037-.045.095-.064.134-.128.275-.034.591.213.71.248.12.556-.007.69-.282v-.002c.02-.039.046-.09.062-.127.07-.162.094-.301.144-.458.132-.332.205-.68.387-.897.05-.06.13-.082.215-.105l.113-.205a6.453 6.453 0 0 0 4.609.012l.106.192c.086.028.18.042.256.155.136.232.229.507.342.84.05.156.074.295.145.457.016.037.043.09.062.129.133.276.442.402.69.282.247-.118.341-.435.213-.71-.02-.039-.045-.096-.065-.134-.083-.156-.177-.261-.268-.398-.19-.296-.346-.541-.443-.793-.04-.13.007-.21.038-.294-.018-.022-.059-.144-.083-.202a6.499 6.499 0 0 0 2.88-3.622c.064.01.176.03.213.038.075-.05.144-.114.28-.104.266.039.54.138.87.256.154.06.277.128.448.173.036.01.088.019.13.028l.009.003.007.001c.297.064.584-.098.645-.365.06-.266-.128-.537-.423-.608zM16.4 9.701l-1.95 1.746v.005a.44.44 0 0 0 .173.757l.003.01 2.526.728a5.199 5.199 0 0 0-.108-1.674A5.208 5.208 0 0 0 16.4 9.7zm-4.013 5.325a.437.437 0 0 0-.404-.232.44.44 0 0 0-.372.233h-.002l-1.268 2.292a5.164 5.164 0 0 0 3.326.003l-1.27-2.296h-.01zm1.888-1.293a.44.44 0 0 0-.27.036.44.44 0 0 0-.214.572l-.003.004 1.01 2.438a5.15 5.15 0 0 0 2.081-2.615l-2.6-.44-.004.005z" fill="#fff"/></g><circle cx="440" cy="1042" r="18.0" fill="#326CE5"/><g transform="translate(428.3,1030.3) scale(0.9750)"><path d="M10.204 14.35l.007.01-.999 2.413a5.171 5.171 0 0 1-2.075-2.597l2.578-.437.004.005a.44.44 0 0 1 .484.606zm-.833-2.129a.44.44 0 0 0 .173-.756l.002-.011L7.585 9.7a5.143 5.143 0 0 0-.73 3.255l2.514-.725.002-.009zm1.145-1.98a.44.44 0 0 0 .699-.337l.01-.005.15-2.62a5.144 5.144 0 0 0-3.01 1.442l2.147 1.523.004-.002zm.76 2.75l.723.349.722-.347.18-.78-.5-.623h-.804l-.5.623.179.779zm1.5-3.095a.44.44 0 0 0 .7.336l.008.003 2.134-1.513a5.188 5.188 0 0 0-2.992-1.442l.148 2.615.002.001zm10.876 5.97l-5.773 7.181a1.6 1.6 0 0 1-1.248.594l-9.261.003a1.6 1.6 0 0 1-1.247-.596l-5.776-7.18a1.583 1.583 0 0 1-.307-1.34L2.1 5.573c.108-.47.425-.864.863-1.073L11.305.513a1.606 1.606 0 0 1 1.385 0l8.345 3.985c.438.209.755.604.863 1.073l2.062 8.955c.108.47-.005.963-.308 1.34zm-3.289-2.057c-.042-.01-.103-.026-.145-.034-.174-.033-.315-.025-.479-.038-.35-.037-.638-.067-.895-.148-.105-.04-.18-.165-.216-.216l-.201-.059a6.45 6.45 0 0 0-.105-2.332 6.465 6.465 0 0 0-.936-2.163c.052-.047.15-.133.177-.159.008-.09.001-.183.094-.282.197-.185.444-.338.743-.522.142-.084.273-.137.415-.242.032-.024.076-.062.11-.089.24-.191.295-.52.123-.736-.172-.216-.506-.236-.745-.045-.034.027-.08.062-.111.088-.134.116-.217.23-.33.35-.246.25-.45.458-.673.609-.097.056-.239.037-.303.033l-.19.135a6.545 6.545 0 0 0-4.146-2.003l-.012-.223c-.065-.062-.143-.115-.163-.25-.022-.268.015-.557.057-.905.023-.163.061-.298.068-.475.001-.04-.001-.099-.001-.142 0-.306-.224-.555-.5-.555-.275 0-.499.249-.499.555l.001.014c0 .041-.002.092 0 .128.006.177.044.312.067.475.042.348.078.637.056.906a.545.545 0 0 1-.162.258l-.012.211a6.424 6.424 0 0 0-4.166 2.003 8.373 8.373 0 0 1-.18-.128c-.09.012-.18.04-.297-.029-.223-.15-.427-.358-.673-.608-.113-.12-.195-.234-.329-.349-.03-.026-.077-.062-.111-.088a.594.594 0 0 0-.348-.132.481.481 0 0 0-.398.176c-.172.216-.117.546.123.737l.007.005.104.083c.142.105.272.159.414.242.299.185.546.338.743.522.076.082.09.226.1.288l.16.143a6.462 6.462 0 0 0-1.02 4.506l-.208.06c-.055.072-.133.184-.215.217-.257.081-.546.11-.895.147-.164.014-.305.006-.48.039-.037.007-.09.02-.133.03l-.004.002-.007.002c-.295.071-.484.342-.423.608.061.267.349.429.645.365l.007-.001.01-.003.129-.029c.17-.046.294-.113.448-.172.33-.118.604-.217.87-.256.112-.009.23.069.288.101l.217-.037a6.5 6.5 0 0 0 2.88 3.596l-.09.218c.033.084.069.199.044.282-.097.252-.263.517-.452.813-.091.136-.185.242-.268.399-.02.037-.045.095-.064.134-.128.275-.034.591.213.71.248.12.556-.007.69-.282v-.002c.02-.039.046-.09.062-.127.07-.162.094-.301.144-.458.132-.332.205-.68.387-.897.05-.06.13-.082.215-.105l.113-.205a6.453 6.453 0 0 0 4.609.012l.106.192c.086.028.18.042.256.155.136.232.229.507.342.84.05.156.074.295.145.457.016.037.043.09.062.129.133.276.442.402.69.282.247-.118.341-.435.213-.71-.02-.039-.045-.096-.065-.134-.083-.156-.177-.261-.268-.398-.19-.296-.346-.541-.443-.793-.04-.13.007-.21.038-.294-.018-.022-.059-.144-.083-.202a6.499 6.499 0 0 0 2.88-3.622c.064.01.176.03.213.038.075-.05.144-.114.28-.104.266.039.54.138.87.256.154.06.277.128.448.173.036.01.088.019.13.028l.009.003.007.001c.297.064.584-.098.645-.365.06-.266-.128-.537-.423-.608zM16.4 9.701l-1.95 1.746v.005a.44.44 0 0 0 .173.757l.003.01 2.526.728a5.199 5.199 0 0 0-.108-1.674A5.208 5.208 0 0 0 16.4 9.7zm-4.013 5.325a.437.437 0 0 0-.404-.232.44.44 0 0 0-.372.233h-.002l-1.268 2.292a5.164 5.164 0 0 0 3.326.003l-1.27-2.296h-.01zm1.888-1.293a.44.44 0 0 0-.27.036.44.44 0 0 0-.214.572l-.003.004 1.01 2.438a5.15 5.15 0 0 0 2.081-2.615l-2.6-.44-.004.005z" fill="#fff"/></g><text x="250" y="1078" font-family="Inter, 'Helvetica Neue', Helvetica, Arial, sans-serif" font-size="10" fill="#9aa4ad" text-anchor="middle" font-weight="400"><tspan x="250" dy="0.0">node 2a</tspan></text><text x="345" y="1078" font-family="Inter, 'Helvetica Neue', Helvetica, Arial, sans-serif" font-size="10" fill="#9aa4ad" text-anchor="middle" font-weight="400"><tspan x="345" dy="0.0">node 2b</tspan></text><text x="440" y="1078" font-family="Inter, 'Helvetica Neue', Helvetica, Arial, sans-serif" font-size="10" fill="#9aa4ad" text-anchor="middle" font-weight="400"><tspan x="440" dy="0.0">node 2c</tspan></text><path d="M345 954 L345 1015" fill="none" stroke="#f2f2f2" stroke-width="1.7" stroke-linejoin="miter" marker-end="url(#mf2f2f2)"/><path d="M345 985 L250 985 L250 1015" fill="none" stroke="#f2f2f2" stroke-width="1.7" stroke-linejoin="miter" marker-end="url(#mf2f2f2)"/><path d="M345 985 L440 985 L440 1015" fill="none" stroke="#f2f2f2" stroke-width="1.7" stroke-linejoin="miter" marker-end="url(#mf2f2f2)"/><path d="M367 810 L524 810" fill="none" stroke="#f2f2f2" stroke-width="1.7" stroke-linejoin="miter" marker-end="url(#mf2f2f2)"/><g><rect x="419.5" y="788.5" width="60.9" height="16.8" fill="#000000" opacity="0.92"/><text x="450" y="800" font-family="Inter, 'Helvetica Neue', Helvetica, Arial, sans-serif" font-size="10.5" fill="#9aa4ad" text-anchor="middle" font-weight="400"><tspan x="450" dy="0.0">Helm sync</tspan></text></g><rect x="530" y="715" width="590" height="375" rx="0" fill="none" stroke="#4a5560" stroke-width="1.5" stroke-dasharray="4 3" opacity="1"/><text x="542" y="737" font-family="Inter, 'Helvetica Neue', Helvetica, Arial, sans-serif" font-size="11.5" fill="#c9d1d9" text-anchor="start" font-weight="400"><tspan x="542" dy="0.0">namespace: order-fulfillment</tspan></text><rect x="545" y="765" width="134" height="42" rx="7" fill="#10161b" stroke="#4a5560" stroke-width="1.2" opacity="1"/><circle cx="558" cy="786.0" r="4.5" fill="#3776AB"/><text x="570" y="785.0" font-family="Inter, 'Helvetica Neue', Helvetica, Arial, sans-serif" font-size="10.5" fill="#f2f2f2" text-anchor="start" font-weight="600"><tspan x="570" dy="0.0">order-service</tspan></text><text x="570" y="799.0" font-family="Inter, 'Helvetica Neue', Helvetica, Arial, sans-serif" font-size="9.5" fill="#9aa4ad" text-anchor="start" font-weight="400"><tspan x="570" dy="0.0">:8001 · FastAPI</tspan></text><rect x="687" y="765" width="134" height="42" rx="7" fill="#10161b" stroke="#4a5560" stroke-width="1.2" opacity="1"/><circle cx="700" cy="786.0" r="4.5" fill="#00ADD8"/><text x="712" y="785.0" font-family="Inter, 'Helvetica Neue', Helvetica, Arial, sans-serif" font-size="10.5" fill="#f2f2f2" text-anchor="start" font-weight="600"><tspan x="712" dy="0.0">inventory-service</tspan></text><text x="712" y="799.0" font-family="Inter, 'Helvetica Neue', Helvetica, Arial, sans-serif" font-size="9.5" fill="#9aa4ad" text-anchor="start" font-weight="400"><tspan x="712" dy="0.0">:8002 · Go</tspan></text><rect x="829" y="765" width="134" height="42" rx="7" fill="#10161b" stroke="#4a5560" stroke-width="1.2" opacity="1"/><circle cx="842" cy="786.0" r="4.5" fill="#3776AB"/><text x="854" y="785.0" font-family="Inter, 'Helvetica Neue', Helvetica, Arial, sans-serif" font-size="10.5" fill="#f2f2f2" text-anchor="start" font-weight="600"><tspan x="854" dy="0.0">payment-service</tspan></text><text x="854" y="799.0" font-family="Inter, 'Helvetica Neue', Helvetica, Arial, sans-serif" font-size="9.5" fill="#9aa4ad" text-anchor="start" font-weight="400"><tspan x="854" dy="0.0">:8003 · FastAPI</tspan></text><rect x="971" y="765" width="134" height="42" rx="7" fill="#10161b" stroke="#4a5560" stroke-width="1.2" opacity="1"/><circle cx="984" cy="786.0" r="4.5" fill="#3776AB"/><text x="996" y="785.0" font-family="Inter, 'Helvetica Neue', Helvetica, Arial, sans-serif" font-size="10.5" fill="#f2f2f2" text-anchor="start" font-weight="600"><tspan x="996" dy="0.0">shipping-service</tspan></text><text x="996" y="799.0" font-family="Inter, 'Helvetica Neue', Helvetica, Arial, sans-serif" font-size="9.5" fill="#9aa4ad" text-anchor="start" font-weight="400"><tspan x="996" dy="0.0">:8005 · FastAPI</tspan></text><rect x="545" y="817" width="134" height="42" rx="7" fill="#10161b" stroke="#4a5560" stroke-width="1.2" opacity="1"/><circle cx="558" cy="838.0" r="4.5" fill="#00ADD8"/><text x="570" y="837.0" font-family="Inter, 'Helvetica Neue', Helvetica, Arial, sans-serif" font-size="10.5" fill="#f2f2f2" text-anchor="start" font-weight="600"><tspan x="570" dy="0.0">notification-service</tspan></text><text x="570" y="851.0" font-family="Inter, 'Helvetica Neue', Helvetica, Arial, sans-serif" font-size="9.5" fill="#9aa4ad" text-anchor="start" font-weight="400"><tspan x="570" dy="0.0">:8004 · Go</tspan></text><rect x="687" y="817" width="134" height="42" rx="7" fill="#10161b" stroke="#4a5560" stroke-width="1.2" opacity="1"/><circle cx="700" cy="838.0" r="4.5" fill="#00ADD8"/><text x="712" y="837.0" font-family="Inter, 'Helvetica Neue', Helvetica, Arial, sans-serif" font-size="10.5" fill="#f2f2f2" text-anchor="start" font-weight="600"><tspan x="712" dy="0.0">worker</tspan></text><text x="712" y="851.0" font-family="Inter, 'Helvetica Neue', Helvetica, Arial, sans-serif" font-size="9.5" fill="#9aa4ad" text-anchor="start" font-weight="400"><tspan x="712" dy="0.0">:8006 · Go · SQS</tspan></text><rect x="829" y="817" width="134" height="42" rx="7" fill="#10161b" stroke="#4a5560" stroke-width="1.2" opacity="1"/><circle cx="842" cy="838.0" r="4.5" fill="#00ADD8"/><text x="854" y="837.0" font-family="Inter, 'Helvetica Neue', Helvetica, Arial, sans-serif" font-size="10.5" fill="#f2f2f2" text-anchor="start" font-weight="600"><tspan x="854" dy="0.0">scheduler</tspan></text><text x="854" y="851.0" font-family="Inter, 'Helvetica Neue', Helvetica, Arial, sans-serif" font-size="9.5" fill="#9aa4ad" text-anchor="start" font-weight="400"><tspan x="854" dy="0.0">:8007 · Go · singleton</tspan></text><rect x="971" y="817" width="134" height="42" rx="7" fill="#10161b" stroke="#4a5560" stroke-width="1.2" opacity="1"/><circle cx="984" cy="838.0" r="4.5" fill="#3776AB"/><text x="996" y="837.0" font-family="Inter, 'Helvetica Neue', Helvetica, Arial, sans-serif" font-size="10.5" fill="#f2f2f2" text-anchor="start" font-weight="600"><tspan x="996" dy="0.0">dashboard-api</tspan></text><text x="996" y="851.0" font-family="Inter, 'Helvetica Neue', Helvetica, Arial, sans-serif" font-size="9.5" fill="#9aa4ad" text-anchor="start" font-weight="400"><tspan x="996" dy="0.0">:8009 · FastAPI</tspan></text><g transform="translate(601.0,896.0) scale(1.5833)"><path d="M23.5594 14.7228a.5269.5269 0 0 0-.0563-.1191c-.139-.2632-.4768-.3418-1.0074-.2321-1.6533.3411-2.2935.1312-2.5256-.0191 1.342-2.0482 2.445-4.522 3.0411-6.8297.2714-1.0507.7982-3.5237.1222-4.7316a1.5641 1.5641 0 0 0-.1509-.235C21.6931.9086 19.8007.0248 17.5099.0005c-1.4947-.0158-2.7705.3461-3.1161.4794a9.449 9.449 0 0 0-.5159-.0816 8.044 8.044 0 0 0-1.3114-.1278c-1.1822-.0184-2.2038.2642-3.0498.8406-.8573-.3211-4.7888-1.645-7.2219.0788C.9359 2.1526.3086 3.8733.4302 6.3043c.0409.818.5069 3.334 1.2423 5.7436.4598 1.5065.9387 2.7019 1.4334 3.582.553.9942 1.1259 1.5933 1.7143 1.7895.4474.1491 1.1327.1441 1.8581-.7279.8012-.9635 1.5903-1.8258 1.9446-2.2069.4351.2355.9064.3625 1.39.3772a.0569.0569 0 0 0 .0004.0041 11.0312 11.0312 0 0 0-.2472.3054c-.3389.4302-.4094.5197-1.5002.7443-.3102.064-1.1344.2339-1.1464.8115-.0025.1224.0329.2309.0919.3268.2269.4231.9216.6097 1.015.6331 1.3345.3335 2.5044.092 3.3714-.6787-.017 2.231.0775 4.4174.3454 5.0874.2212.5529.7618 1.9045 2.4692 1.9043.2505 0 .5263-.0291.8296-.0941 1.7819-.3821 2.5557-1.1696 2.855-2.9059.1503-.8707.4016-2.8753.5388-4.1012.0169-.0703.0357-.1207.057-.1362.0007-.0005.0697-.0471.4272.0307a.3673.3673 0 0 0 .0443.0068l.2539.0223.0149.001c.8468.0384 1.9114-.1426 2.5312-.4308.6438-.2988 1.8057-1.0323 1.5951-1.6698zM2.371 11.8765c-.7435-2.4358-1.1779-4.8851-1.2123-5.5719-.1086-2.1714.4171-3.6829 1.5623-4.4927 1.8367-1.2986 4.8398-.5408 6.108-.13-.0032.0032-.0066.0061-.0098.0094-2.0238 2.044-1.9758 5.536-1.9708 5.7495-.0002.0823.0066.1989.0162.3593.0348.5873.0996 1.6804-.0735 2.9184-.1609 1.1504.1937 2.2764.9728 3.0892.0806.0841.1648.1631.2518.2374-.3468.3714-1.1004 1.1926-1.9025 2.1576-.5677.6825-.9597.5517-1.0886.5087-.3919-.1307-.813-.5871-1.2381-1.3223-.4796-.839-.9635-2.0317-1.4155-3.5126zm6.0072 5.0871c-.1711-.0428-.3271-.1132-.4322-.1772.0889-.0394.2374-.0902.4833-.1409 1.2833-.2641 1.4815-.4506 1.9143-1.0002.0992-.126.2116-.2687.3673-.4426a.3549.3549 0 0 0 .0737-.1298c.1708-.1513.2724-.1099.4369-.0417.156.0646.3078.26.3695.4752.0291.1016.0619.2945-.0452.4444-.9043 1.2658-2.2216 1.2494-3.1676 1.0128zm2.094-3.988-.0525.141c-.133.3566-.2567.6881-.3334 1.003-.6674-.0021-1.3168-.2872-1.8105-.8024-.6279-.6551-.9131-1.5664-.7825-2.5004.1828-1.3079.1153-2.4468.079-3.0586-.005-.0857-.0095-.1607-.0122-.2199.2957-.2621 1.6659-.9962 2.6429-.7724.4459.1022.7176.4057.8305.928.5846 2.7038.0774 3.8307-.3302 4.7363-.084.1866-.1633.3629-.2311.5454zm7.3637 4.5725c-.0169.1768-.0358.376-.0618.5959l-.146.4383a.3547.3547 0 0 0-.0182.1077c-.0059.4747-.054.6489-.115.8693-.0634.2292-.1353.4891-.1794 1.0575-.11 1.4143-.8782 2.2267-2.4172 2.5565-1.5155.3251-1.7843-.4968-2.0212-1.2217a6.5824 6.5824 0 0 0-.0769-.2266c-.2154-.5858-.1911-1.4119-.1574-2.5551.0165-.5612-.0249-1.9013-.3302-2.6462.0044-.2932.0106-.5909.019-.8918a.3529.3529 0 0 0-.0153-.1126 1.4927 1.4927 0 0 0-.0439-.208c-.1226-.4283-.4213-.7866-.7797-.9351-.1424-.059-.4038-.1672-.7178-.0869.067-.276.1831-.5875.309-.9249l.0529-.142c.0595-.16.134-.3257.213-.5012.4265-.9476 1.0106-2.2453.3766-5.1772-.2374-1.0981-1.0304-1.6343-2.2324-1.5098-.7207.0746-1.3799.3654-1.7088.5321a5.6716 5.6716 0 0 0-.1958.1041c.0918-1.1064.4386-3.1741 1.7357-4.4823a4.0306 4.0306 0 0 1 .3033-.276.3532.3532 0 0 0 .1447-.0644c.7524-.5706 1.6945-.8506 2.802-.8325.4091.0067.8017.0339 1.1742.081 1.939.3544 3.2439 1.4468 4.0359 2.3827.8143.9623 1.2552 1.9315 1.4312 2.4543-1.3232-.1346-2.2234.1268-2.6797.779-.9926 1.4189.543 4.1729 1.2811 5.4964.1353.2426.2522.4522.2889.5413.2403.5825.5515.9713.7787 1.2552.0696.087.1372.1714.1885.245-.4008.1155-1.1208.3825-1.0552 1.717-.0123.1563-.0423.4469-.0834.8148-.0461.2077-.0702.4603-.0994.7662zm.8905-1.6211c-.0405-.8316.2691-.9185.5967-1.0105a2.8566 2.8566 0 0 0 .135-.0406 1.202 1.202 0 0 0 .1342.103c.5703.3765 1.5823.4213 3.0068.1344-.2016.1769-.5189.3994-.9533.6011-.4098.1903-1.0957.333-1.7473.3636-.7197.0336-1.0859-.0807-1.1721-.151zm.5695-9.2712c-.0059.3508-.0542.6692-.1054 1.0017-.055.3576-.112.7274-.1264 1.1762-.0142.4368.0404.8909.0932 1.3301.1066.887.216 1.8003-.2075 2.7014a3.5272 3.5272 0 0 1-.1876-.3856c-.0527-.1276-.1669-.3326-.3251-.6162-.6156-1.1041-2.0574-3.6896-1.3193-4.7446.3795-.5427 1.3408-.5661 2.1781-.463zm.2284 7.0137a12.3762 12.3762 0 0 0-.0853-.1074l-.0355-.0444c.7262-1.1995.5842-2.3862.4578-3.4385-.0519-.4318-.1009-.8396-.0885-1.2226.0129-.4061.0666-.7543.1185-1.0911.0639-.415.1288-.8443.1109-1.3505.0134-.0531.0188-.1158.0118-.1902-.0457-.4855-.5999-1.938-1.7294-3.253-.6076-.7073-1.4896-1.4972-2.6889-2.0395.5251-.1066 1.2328-.2035 2.0244-.1859 2.0515.0456 3.6746.8135 4.8242 2.2824a.908.908 0 0 1 .0667.1002c.7231 1.3556-.2762 6.2751-2.9867 10.5405zm-8.8166-6.1162c-.025.1794-.3089.4225-.6211.4225a.5821.5821 0 0 1-.0809-.0056c-.1873-.026-.3765-.144-.5059-.3156-.0458-.0605-.1203-.178-.1055-.2844.0055-.0401.0261-.0985.0925-.1488.1182-.0894.3518-.1226.6096-.0867.3163.0441.6426.1938.6113.4186zm7.9305-.4114c.0111.0792-.049.201-.1531.3102-.0683.0717-.212.1961-.4079.2232a.5456.5456 0 0 1-.075.0052c-.2935 0-.5414-.2344-.5607-.3717-.024-.1765.2641-.3106.5611-.352.297-.0414.6111.0088.6356.1851z" fill="#4F8EF7"/></g><text x="620" y="951.0" font-family="Inter, 'Helvetica Neue', Helvetica, Arial, sans-serif" font-size="12.5" fill="#f2f2f2" text-anchor="middle" font-weight="400"><tspan x="620" dy="0.0">PostgreSQL 16</tspan></text><text x="620" y="968.25" font-family="Inter, 'Helvetica Neue', Helvetica, Arial, sans-serif" font-size="10.5" fill="#9aa4ad" text-anchor="middle" font-weight="400"><tspan x="620" dy="0.0">StatefulSet</tspan></text><g transform="translate(741.0,896.0) scale(1.5833)"><path d="M22.71 13.145c-1.66 2.092-3.452 4.483-7.038 4.483-3.203 0-4.397-2.825-4.48-5.12.701 1.484 2.073 2.685 4.214 2.63 4.117-.133 6.94-3.852 6.94-7.239 0-4.05-3.022-6.972-8.268-6.972-3.752 0-8.4 1.428-11.455 3.685C2.59 6.937 3.885 9.958 4.35 9.626c2.648-1.904 4.748-3.13 6.784-3.744C8.12 9.244.886 17.05 0 18.425c.1 1.261 1.66 4.648 2.424 4.648.232 0 .431-.133.664-.365a100.49 100.49 0 0 0 5.54-6.765c.222 3.104 1.748 6.898 6.014 6.898 3.819 0 7.604-2.756 9.33-8.965.2-.764-.73-1.361-1.261-.73zm-4.349-5.013c0 1.959-1.926 2.922-3.685 2.922-.941 0-1.664-.247-2.235-.568 1.051-1.592 2.092-3.225 3.21-4.973 1.972.334 2.71 1.43 2.71 2.619z" fill="#FF4438"/></g><text x="760" y="951.0" font-family="Inter, 'Helvetica Neue', Helvetica, Arial, sans-serif" font-size="12.5" fill="#f2f2f2" text-anchor="middle" font-weight="400"><tspan x="760" dy="0.0">Redis</tspan></text><text x="760" y="968.25" font-family="Inter, 'Helvetica Neue', Helvetica, Arial, sans-serif" font-size="10.5" fill="#9aa4ad" text-anchor="middle" font-weight="400"><tspan x="760" dy="0.0">StatefulSet · AOF</tspan></text><rect x="891.0" y="896.0" width="38" height="38" rx="5" fill="url(#gstorage)"/><g transform="translate(891.0,896.0) scale(0.7917)" fill="none" stroke="#fff" stroke-width="2.6" stroke-linecap="round" stroke-linejoin="round"><ellipse cx="24" cy="13" rx="12" ry="4.5"/><path d="M12 13 V35 C12 38 17 40 24 40 C31 40 36 38 36 35 V13"/><path d="M12 24 C12 27 17 29 24 29 C31 29 36 27 36 24"/></g><text x="910" y="951.0" font-family="Inter, 'Helvetica Neue', Helvetica, Arial, sans-serif" font-size="12.5" fill="#f2f2f2" text-anchor="middle" font-weight="400"><tspan x="910" dy="0.0">EBS gp3</tspan></text><text x="910" y="968.25" font-family="Inter, 'Helvetica Neue', Helvetica, Arial, sans-serif" font-size="10.5" fill="#9aa4ad" text-anchor="middle" font-weight="400"><tspan x="910" dy="0.0">KMS-encrypted PVCs</tspan></text><path d="M645 915 L880 915" fill="none" stroke="#7AA116" stroke-width="1.7" stroke-linejoin="miter" stroke-dasharray="3 3"/><path d="M785 928 L885 928" fill="none" stroke="#7AA116" stroke-width="1.7" stroke-linejoin="miter" stroke-dasharray="3 3" marker-end="url(#m7AA116)"/><rect x="900" y="1028" width="190" height="44" rx="7" fill="#10161b" stroke="#F78E04" stroke-width="1.8" opacity="1"/><circle cx="913" cy="1050.0" r="4.5" fill="#3776AB"/><text x="925" y="1049.0" font-family="Inter, 'Helvetica Neue', Helvetica, Arial, sans-serif" font-size="10.5" fill="#f2f2f2" text-anchor="start" font-weight="600"><tspan x="925" dy="0.0">api-gateway</tspan></text><text x="925" y="1063.0" font-family="Inter, 'Helvetica Neue', Helvetica, Arial, sans-serif" font-size="9.5" fill="#9aa4ad" text-anchor="start" font-weight="400"><tspan x="925" dy="0.0">:8000 · FastAPI · auth + rate limit</tspan></text><path d="M1050 1028 L1050 875" fill="none" stroke="#f2f2f2" stroke-width="1.7" stroke-linejoin="miter" marker-end="url(#mf2f2f2)"/><g><rect x="1003.2" y="949.0" width="108.8" height="16.2" fill="#000000" opacity="0.92"/><text x="1108" y="960" font-family="Inter, 'Helvetica Neue', Helvetica, Arial, sans-serif" font-size="10" fill="#9aa4ad" text-anchor="end" font-weight="400"><tspan x="1108" dy="0.0">routes to services</tspan></text></g><rect x="1145" y="715" width="355" height="375" rx="0" fill="none" stroke="#4a5560" stroke-width="1.5" stroke-dasharray="4 3" opacity="1"/><text x="1157" y="737" font-family="Inter, 'Helvetica Neue', Helvetica, Arial, sans-serif" font-size="11.5" fill="#c9d1d9" text-anchor="start" font-weight="400"><tspan x="1157" dy="0.0">Platform add-ons + observability</tspan></text><g transform="translate(1209.0,769.0) scale(1.7500)"><path d="M12 0C5.373 0 0 5.372 0 12c0 6.627 5.373 12 12 12s12-5.373 12-12c0-6.628-5.373-12-12-12zm0 22.46c-1.885 0-3.414-1.26-3.414-2.814h6.828c0 1.553-1.528 2.813-3.414 2.813zm5.64-3.745H6.36v-2.046h11.28v2.046zm-.04-3.098H6.391c-.037-.043-.075-.086-.111-.13-1.155-1.401-1.427-2.133-1.69-2.879-.005-.025 1.4.287 2.395.511 0 0 .513.119 1.262.255-.72-.843-1.147-1.915-1.147-3.01 0-2.406 1.845-4.508 1.18-6.207.648.053 1.34 1.367 1.387 3.422.689-.951.977-2.69.977-3.755 0-1.103.727-2.385 1.454-2.429-.648 1.069.168 1.984.894 4.256.272.854.237 2.29.447 3.201.07-1.892.395-4.652 1.595-5.605-.529 1.2.079 2.702.494 3.424.671 1.164 1.078 2.047 1.078 3.716a4.642 4.642 0 01-1.11 2.996c.792-.149 1.34-.283 1.34-.283l2.573-.502s-.374 1.538-1.81 3.019z" fill="#E6522C"/></g><text x="1261.0" y="787" font-family="Inter, 'Helvetica Neue', Helvetica, Arial, sans-serif" font-size="12" fill="#f2f2f2" text-anchor="start" font-weight="400"><tspan x="1261.0" dy="0.0">Prometheus</tspan></text><text x="1261.0" y="802" font-family="Inter, 'Helvetica Neue', Helvetica, Arial, sans-serif" font-size="10" fill="#9aa4ad" text-anchor="start" font-weight="400"><tspan x="1261.0" dy="0.0">kube-prom-stack</tspan></text><g transform="translate(1209.0,894.0) scale(1.7500)"><path d="M23.02 10.59a8.578 8.578 0 0 0-.862-3.034 8.911 8.911 0 0 0-1.789-2.445c.337-1.342-.413-2.505-.413-2.505-1.292-.08-2.113.4-2.416.62-.052-.02-.102-.044-.154-.064-.22-.089-.446-.172-.677-.247-.231-.073-.47-.14-.711-.197a9.867 9.867 0 0 0-.875-.161C14.557.753 12.94 0 12.94 0c-1.804 1.145-2.147 2.744-2.147 2.744l-.018.093c-.098.029-.2.057-.298.088-.138.042-.275.094-.413.143-.138.055-.275.107-.41.166a8.869 8.869 0 0 0-1.557.87l-.063-.029c-2.497-.955-4.716.195-4.716.195-.203 2.658.996 4.33 1.235 4.636a11.608 11.608 0 0 0-.607 2.635C1.636 12.677.953 15.014.953 15.014c1.926 2.214 4.171 2.351 4.171 2.351.003-.002.006-.002.006-.005.285.509.615.994.986 1.446.156.19.32.371.488.548-.704 2.009.099 3.68.099 3.68 2.144.08 3.553-.937 3.849-1.173a9.784 9.784 0 0 0 3.164.501h.08l.055-.003.107-.002.103-.005.003.002c1.01 1.44 2.788 1.646 2.788 1.646 1.264-1.332 1.337-2.653 1.337-2.94v-.058c0-.02-.003-.039-.003-.06.265-.187.52-.387.758-.6a7.875 7.875 0 0 0 1.415-1.7c1.43.083 2.437-.885 2.437-.885-.236-1.49-1.085-2.216-1.264-2.354l-.018-.013-.016-.013a.217.217 0 0 1-.031-.02c.008-.092.016-.18.02-.27.011-.162.016-.323.016-.48v-.253l-.005-.098-.008-.135a1.891 1.891 0 0 0-.01-.13c-.003-.042-.008-.083-.013-.125l-.016-.124-.018-.122a6.215 6.215 0 0 0-2.032-3.73 6.015 6.015 0 0 0-3.222-1.46 6.292 6.292 0 0 0-.85-.048l-.107.002h-.063l-.044.003-.104.008a4.777 4.777 0 0 0-3.335 1.695c-.332.4-.592.84-.768 1.297a4.594 4.594 0 0 0-.312 1.817l.003.091c.005.055.007.11.013.164a3.615 3.615 0 0 0 .698 1.82 3.53 3.53 0 0 0 1.827 1.282c.33.098.66.14.971.137.039 0 .078 0 .114-.002l.063-.003c.02 0 .041-.003.062-.003.034-.002.065-.007.099-.01.007 0 .018-.003.028-.003l.031-.005.06-.008a1.18 1.18 0 0 0 .112-.02c.036-.008.072-.013.109-.024a2.634 2.634 0 0 0 .914-.415c.028-.02.056-.041.085-.065a.248.248 0 0 0 .039-.35.244.244 0 0 0-.309-.06l-.078.042c-.09.044-.184.083-.283.116a2.476 2.476 0 0 1-.475.096c-.028.003-.054.006-.083.006l-.083.002c-.026 0-.054 0-.08-.002l-.102-.006h-.012l-.024.006c-.016-.003-.031-.003-.044-.006-.031-.002-.06-.007-.091-.01a2.59 2.59 0 0 1-.724-.213 2.557 2.557 0 0 1-.667-.438 2.52 2.52 0 0 1-.805-1.475 2.306 2.306 0 0 1-.029-.444l.006-.122v-.023l.002-.031c.003-.021.003-.04.005-.06a3.163 3.163 0 0 1 1.352-2.29 3.12 3.12 0 0 1 .937-.43 2.946 2.946 0 0 1 .776-.101h.06l.07.002.045.003h.026l.07.005a4.041 4.041 0 0 1 1.635.49 3.94 3.94 0 0 1 1.602 1.662 3.77 3.77 0 0 1 .397 1.414l.005.076.003.075c.002.026.002.05.002.075 0 .024.003.052 0 .07v.065l-.002.073-.008.174a6.195 6.195 0 0 1-.08.639 5.1 5.1 0 0 1-.267.927 5.31 5.31 0 0 1-.624 1.13 5.052 5.052 0 0 1-3.237 2.014 4.82 4.82 0 0 1-.649.066l-.039.003h-.287a6.607 6.607 0 0 1-1.716-.265 6.776 6.776 0 0 1-3.4-2.274 6.75 6.75 0 0 1-.746-1.15 6.616 6.616 0 0 1-.714-2.596l-.005-.083-.002-.02v-.056l-.003-.073v-.096l-.003-.104v-.07l.003-.163c.008-.22.026-.45.054-.678a8.707 8.707 0 0 1 .28-1.355c.128-.444.286-.872.473-1.277a7.04 7.04 0 0 1 1.456-2.1 5.925 5.925 0 0 1 .953-.763c.169-.111.343-.213.524-.306.089-.05.182-.091.273-.135.047-.02.093-.042.138-.062a7.177 7.177 0 0 1 .714-.267l.145-.045c.049-.015.098-.026.148-.041.098-.029.197-.052.296-.076.049-.013.1-.02.15-.033l.15-.032.151-.028.076-.013.075-.01.153-.024c.057-.01.114-.013.171-.023l.169-.021c.036-.003.073-.008.106-.01l.073-.008.036-.003.042-.002c.057-.003.114-.008.171-.01l.086-.006h.023l.037-.003.145-.007a7.999 7.999 0 0 1 1.708.125 7.917 7.917 0 0 1 2.048.68 8.253 8.253 0 0 1 1.672 1.09l.09.077.089.078c.06.052.114.107.171.159.057.052.112.106.166.16.052.055.107.107.159.164a8.671 8.671 0 0 1 1.41 1.978c.012.026.028.052.04.078l.04.078.075.156c.023.051.05.1.07.153l.065.15a8.848 8.848 0 0 1 .45 1.34.19.19 0 0 0 .201.142.186.186 0 0 0 .172-.184c.01-.246.002-.532-.024-.856z" fill="#F46800"/></g><text x="1261.0" y="912" font-family="Inter, 'Helvetica Neue', Helvetica, Arial, sans-serif" font-size="12" fill="#f2f2f2" text-anchor="start" font-weight="400"><tspan x="1261.0" dy="0.0">Grafana</tspan></text><text x="1261.0" y="927" font-family="Inter, 'Helvetica Neue', Helvetica, Arial, sans-serif" font-size="10" fill="#9aa4ad" text-anchor="start" font-weight="400"><tspan x="1261.0" dy="0.0">custom dashboard</tspan></text><rect x="1380.0" y="770.0" width="40" height="40" rx="5" fill="url(#gsecurity)"/><g transform="translate(1380.0,770.0) scale(0.8333)" fill="none" stroke="#fff" stroke-width="2.6" stroke-linecap="round" stroke-linejoin="round"><rect x="12" y="22" width="24" height="17" rx="3"/><path d="M17 22 V17 A7 7 0 0 1 31 17 V22"/><circle cx="24" cy="30.5" r="2.4" fill="#fff"/></g><text x="1400" y="827.0" font-family="Inter, 'Helvetica Neue', Helvetica, Arial, sans-serif" font-size="11.5" fill="#f2f2f2" text-anchor="middle" font-weight="400"><tspan x="1400" dy="0.0">External</tspan><tspan x="1400" dy="14.0">Secrets</tspan></text><g transform="translate(1380.0,895.0) scale(1.6667)"><path d="M11.9914 0a.8829.8829 0 00-.8718.817v3.0209A.8829.8829 0 0012 4.7207a.8829.8829 0 00.8803-.8803V.817a.8829.8829 0 00-.889-.817zm7.7048 3.1089a.8804.8804 0 00-.5214.1742l-2.374 1.9482a.8804.8804 0 00.5592 1.5622.8794.8794 0 00.5592-.2001l2.3714-1.9506a.8804.8804 0 00-.5944-1.534zm-15.3763.0133a.8829.8829 0 00-.611 1.5206l2.37 1.9506a.876.876 0 00.5606.2001v-.002a.8804.8804 0 00.5597-1.5602L4.8277 3.2831a.8829.8829 0 00-.5078-.161zm7.6598 3.2275a5.0456 5.0456 0 00-5.0262 5.0455v1.4876H5.787a.9672.9672 0 00-.9647.9643v9.1887a.9672.9672 0 00.9647.9643H18.213a.9672.9672 0 00.9643-.9643v-9.1907a.9672.9672 0 00-.9643-.9623h-1.1684v-1.4876a5.0456 5.0456 0 00-5.0649-5.0455zm.0127 2.8933a2.1522 2.1522 0 012.1593 2.1522v1.4876H9.8473v-1.4876a2.1522 2.1522 0 012.145-2.1522zm7.3812.5033a.8829.8829 0 10.0705 1.7632h3.0267a.8829.8829 0 000-1.7609H19.444a.8829.8829 0 00-.0705-.0023zm-17.8444.0023a.8829.8829 0 000 1.7609h2.9983a.8829.8829 0 000-1.7609zm10.4596 6.7746a1.2792 1.2792 0 01.641 2.3926v1.2453a.6298.6298 0 01-1.2595 0v-1.2453a1.2792 1.2792 0 01.6185-2.3926z" fill="#ffffff"/></g><text x="1400" y="952.0" font-family="Inter, 'Helvetica Neue', Helvetica, Arial, sans-serif" font-size="11.5" fill="#f2f2f2" text-anchor="middle" font-weight="400"><tspan x="1400" dy="0.0">cert-manager</tspan></text><text x="1400" y="968.03" font-family="Inter, 'Helvetica Neue', Helvetica, Arial, sans-serif" font-size="9.5" fill="#9aa4ad" text-anchor="middle" font-weight="400"><tspan x="1400" dy="0.0">Let's Encrypt DNS-01</tspan></text><g transform="translate(1208.0,1028.0) scale(1.8333)"><path d="M12 0L1.605 6v12L12 24l10.395-6V6L12 0zm6 16.59c0 .705-.646 1.29-1.529 1.29-.631 0-1.351-.255-1.801-.81l-6-7.141v6.66c0 .721-.57 1.29-1.274 1.29H7.32c-.721 0-1.29-.6-1.29-1.29V7.41c0-.705.63-1.29 1.5-1.29.646 0 1.38.255 1.83.81l5.97 7.141V7.41c0-.721.6-1.29 1.29-1.29h.075c.72 0 1.29.6 1.29 1.29v9.18H18z" fill="#009639"/></g><text x="1262.0" y="1047" font-family="Inter, 'Helvetica Neue', Helvetica, Arial, sans-serif" font-size="12" fill="#f2f2f2" text-anchor="start" font-weight="400"><tspan x="1262.0" dy="0.0">NGINX Ingress</tspan></text><text x="1262.0" y="1062" font-family="Inter, 'Helvetica Neue', Helvetica, Arial, sans-serif" font-size="10" fill="#9aa4ad" text-anchor="start" font-weight="400"><tspan x="1262.0" dy="0.0">TLS termination</tspan></text><path d="M1207 790 L1108 790" fill="none" stroke="#E6522C" stroke-width="1.7" stroke-linejoin="miter" stroke-dasharray="5 3" marker-end="url(#mE6522C)"/><g><rect x="1139.2" y="769.0" width="41.6" height="16.2" fill="#000000" opacity="0.92"/><text x="1160" y="780" font-family="Inter, 'Helvetica Neue', Helvetica, Arial, sans-serif" font-size="10" fill="#E6522C" text-anchor="middle" font-weight="400"><tspan x="1160" dy="0.0">scrape</tspan></text></g><path d="M1230 890 L1230 815" fill="none" stroke="#f2f2f2" stroke-width="1.7" stroke-linejoin="miter" marker-end="url(#mf2f2f2)"/><g><rect x="1232.0" y="847.0" width="36.0" height="16.2" fill="#000000" opacity="0.92"/><text x="1236" y="858" font-family="Inter, 'Helvetica Neue', Helvetica, Arial, sans-serif" font-size="10" fill="#9aa4ad" text-anchor="start" font-weight="400"><tspan x="1236" dy="0.0">query</tspan></text></g><path d="M1400 764 L1400 503" fill="none" stroke="#F54749" stroke-width="1.7" stroke-linejoin="miter" stroke-dasharray="5 3" marker-end="url(#mF54749)"/><g><rect x="1408.0" y="567.0" width="120.0" height="16.2" fill="#000000" opacity="0.92"/><text x="1412" y="578" font-family="Inter, 'Helvetica Neue', Helvetica, Arial, sans-serif" font-size="10" fill="#F54749" text-anchor="start" font-weight="400"><tspan x="1412" dy="0.0">IRSA · polls secrets</tspan></text></g><path d="M1207 1050 L1092 1050" fill="none" stroke="#f2f2f2" stroke-width="1.7" stroke-linejoin="miter" marker-end="url(#mf2f2f2)"/><path d="M760 503 L760 712" fill="none" stroke="#f2f2f2" stroke-width="1.7" stroke-linejoin="miter" marker-end="url(#mf2f2f2)"/><g><rect x="768.0" y="567.0" width="64.0" height="16.2" fill="#000000" opacity="0.92"/><text x="772" y="578" font-family="Inter, 'Helvetica Neue', Helvetica, Arial, sans-serif" font-size="10" fill="#9aa4ad" text-anchor="start" font-weight="400"><tspan x="772" dy="0.0">image pull</tspan></text></g><path d="M960 503 L960 712" fill="none" stroke="#FF4F8B" stroke-width="1.7" stroke-linejoin="miter" stroke-dasharray="5 3" marker-end="url(#mFF4F8B)" marker-start="url(#mFF4F8B)"/><g><rect x="968.0" y="567.0" width="103.2" height="16.2" fill="#000000" opacity="0.92"/><text x="972" y="578" font-family="Inter, 'Helvetica Neue', Helvetica, Arial, sans-serif" font-size="10" fill="#FF4F8B" text-anchor="start" font-weight="400"><tspan x="972" dy="0.0">publish / consume</tspan></text></g><rect x="170" y="1190" width="1340" height="230" rx="0" fill="#1e2410" stroke="#7AA116" stroke-width="1.5" opacity="1"/><g transform="translate(176,1194)"><rect width="22" height="22" fill="#7AA116"/><rect x="6" y="10.5" width="10" height="7.5" rx="1" fill="none" stroke="#000" stroke-width="1.4"/><path d="M8 10.5 V8 A3 3 0 0 1 14 8 V10.5" fill="none" stroke="#000" stroke-width="1.4"/></g><text x="202" y="1212" font-family="Inter, 'Helvetica Neue', Helvetica, Arial, sans-serif" font-size="12.5" fill="#9fd13f" text-anchor="start" font-weight="400"><tspan x="202" dy="0.0">Public subnets</tspan></text><text x="1496" y="1212" font-family="Inter, 'Helvetica Neue', Helvetica, Arial, sans-serif" font-size="11.5" fill="#c9d1d9" text-anchor="end" font-weight="400"><tspan x="1496" dy="0.0">eu-west-2a / 2b / 2c</tspan></text><rect x="457.0" y="1267.0" width="46" height="46" rx="5" fill="url(#gnetwork)"/><g transform="translate(457.0,1267.0) scale(0.9583)" fill="none" stroke="#fff" stroke-width="2.6" stroke-linecap="round" stroke-linejoin="round"><rect x="10" y="13" width="28" height="22" rx="3"/><path d="M15 24 H33 M28 18.5 L33.5 24 L28 29.5"/></g><text x="480" y="1330.0" font-family="Inter, 'Helvetica Neue', Helvetica, Arial, sans-serif" font-size="12" fill="#f2f2f2" text-anchor="middle" font-weight="400"><tspan x="480" dy="0.0">NAT Gateway</tspan></text><text x="480" y="1346.64" font-family="Inter, 'Helvetica Neue', Helvetica, Arial, sans-serif" font-size="10" fill="#9aa4ad" text-anchor="middle" font-weight="400"><tspan x="480" dy="0.0">single · outbound only</tspan></text><rect x="1207.0" y="1267.0" width="46" height="46" rx="5" fill="url(#gnetwork)"/><g transform="translate(1207.0,1267.0) scale(0.9583)" fill="none" stroke="#fff" stroke-width="2.6" stroke-linecap="round" stroke-linejoin="round"><circle cx="13" cy="24" r="3.6"/><circle cx="35" cy="14" r="3.6"/><circle cx="35" cy="24" r="3.6"/><circle cx="35" cy="34" r="3.6"/><path d="M16.6 24 H31.4 M16.2 22.4 L31.8 15.6 M16.2 25.6 L31.8 32.4"/></g><text x="1263.0" y="1287" font-family="Inter, 'Helvetica Neue', Helvetica, Arial, sans-serif" font-size="12" fill="#f2f2f2" text-anchor="start" font-weight="400"><tspan x="1263.0" dy="0.0">AWS NLB</tspan></text><text x="1263.0" y="1302" font-family="Inter, 'Helvetica Neue', Helvetica, Arial, sans-serif" font-size="10" fill="#9aa4ad" text-anchor="start" font-weight="400"><tspan x="1263.0" dy="0.0">created by NGINX Service</tspan></text><path d="M480 1095 L480 1257" fill="none" stroke="#f2f2f2" stroke-width="1.7" stroke-linejoin="miter" marker-end="url(#mf2f2f2)"/><text x="492" y="1170" font-family="Inter, 'Helvetica Neue', Helvetica, Arial, sans-serif" font-size="10" fill="#9aa4ad" text-anchor="start" font-weight="400"><tspan x="492" dy="0.0">egress for non-AWS</tspan><tspan x="492" dy="12.2">traffic only</tspan></text><path d="M1230 1257 L1230 1075" fill="none" stroke="#f2f2f2" stroke-width="1.7" stroke-linejoin="miter" marker-end="url(#mf2f2f2)"/><rect x="1207.0" y="1447.0" width="46" height="46" rx="5" fill="url(#gnetwork)"/><g transform="translate(1207.0,1447.0) scale(0.9583)" fill="none" stroke="#fff" stroke-width="2.6" stroke-linecap="round" stroke-linejoin="round"><path d="M12 37 V23 A12 12 0 0 1 36 23 V37"/><path d="M18.5 37 V25 A5.5 5.5 0 0 1 29.5 25 V37"/></g><text x="1263.0" y="1474" font-family="Inter, 'Helvetica Neue', Helvetica, Arial, sans-serif" font-size="12" fill="#f2f2f2" text-anchor="start" font-weight="400"><tspan x="1263.0" dy="0.0">Internet Gateway</tspan></text><path d="M480 1352 L480 1470 L1207 1470" fill="none" stroke="#f2f2f2" stroke-width="1.7" stroke-linejoin="miter" marker-end="url(#mf2f2f2)"/><path d="M1230 1447 L1230 1315" fill="none" stroke="#f2f2f2" stroke-width="1.7" stroke-linejoin="miter" marker-end="url(#mf2f2f2)"/><rect x="1207.0" y="1582.0" width="46" height="46" rx="5" fill="url(#gnetwork)"/><g transform="translate(1207.0,1582.0) scale(0.9583)" fill="none" stroke="#fff" stroke-width="2.6" stroke-linecap="round" stroke-linejoin="round"><path d="M24 8 L37.5 13 V25 C37.5 32 31.5 37 24 40.5 C16.5 37 10.5 32 10.5 25 V13 Z"/><text x="24" y="29" fill="#fff" stroke="none" font-size="14" font-weight="700" text-anchor="middle" font-family="Inter, Arial, sans-serif">53</text></g><text x="1263.0" y="1602" font-family="Inter, 'Helvetica Neue', Helvetica, Arial, sans-serif" font-size="12" fill="#f2f2f2" text-anchor="start" font-weight="400"><tspan x="1263.0" dy="0.0">Route 53</tspan></text><text x="1263.0" y="1617" font-family="Inter, 'Helvetica Neue', Helvetica, Arial, sans-serif" font-size="10" fill="#9aa4ad" text-anchor="start" font-weight="400"><tspan x="1263.0" dy="0.0">orders.hasanali.uk</tspan></text><path d="M1230 1582 L1230 1495" fill="none" stroke="#f2f2f2" stroke-width="1.7" stroke-linejoin="miter" marker-end="url(#mf2f2f2)"/><circle cx="1230" cy="1735" r="23.0" fill="#1f7ae0"/><circle cx="1230" cy="1729" r="8.5" fill="#fff"/><path d="M1215 1754 C1215 1741 1245 1741 1245 1754 Z" fill="#fff"/><text x="1230" y="1775.0" font-family="Inter, 'Helvetica Neue', Helvetica, Arial, sans-serif" font-size="12.5" fill="#f2f2f2" text-anchor="middle" font-weight="400"><tspan x="1230" dy="0.0">User</tspan></text><path d="M1230 1709 L1230 1632" fill="none" stroke="#f2f2f2" stroke-width="1.7" stroke-linejoin="miter" marker-end="url(#mf2f2f2)"/><g><rect x="1240.0" y="1667.0" width="36.0" height="16.2" fill="#000000" opacity="0.92"/><text x="1244" y="1678" font-family="Inter, 'Helvetica Neue', Helvetica, Arial, sans-serif" font-size="10" fill="#9aa4ad" text-anchor="start" font-weight="400"><tspan x="1244" dy="0.0">HTTPS</tspan></text></g><circle cx="330" cy="1512" r="22.0" fill="#326CE5"/><g transform="translate(315.18,1497.18) scale(1.2350)"><path d="M10.204 14.35l.007.01-.999 2.413a5.171 5.171 0 0 1-2.075-2.597l2.578-.437.004.005a.44.44 0 0 1 .484.606zm-.833-2.129a.44.44 0 0 0 .173-.756l.002-.011L7.585 9.7a5.143 5.143 0 0 0-.73 3.255l2.514-.725.002-.009zm1.145-1.98a.44.44 0 0 0 .699-.337l.01-.005.15-2.62a5.144 5.144 0 0 0-3.01 1.442l2.147 1.523.004-.002zm.76 2.75l.723.349.722-.347.18-.78-.5-.623h-.804l-.5.623.179.779zm1.5-3.095a.44.44 0 0 0 .7.336l.008.003 2.134-1.513a5.188 5.188 0 0 0-2.992-1.442l.148 2.615.002.001zm10.876 5.97l-5.773 7.181a1.6 1.6 0 0 1-1.248.594l-9.261.003a1.6 1.6 0 0 1-1.247-.596l-5.776-7.18a1.583 1.583 0 0 1-.307-1.34L2.1 5.573c.108-.47.425-.864.863-1.073L11.305.513a1.606 1.606 0 0 1 1.385 0l8.345 3.985c.438.209.755.604.863 1.073l2.062 8.955c.108.47-.005.963-.308 1.34zm-3.289-2.057c-.042-.01-.103-.026-.145-.034-.174-.033-.315-.025-.479-.038-.35-.037-.638-.067-.895-.148-.105-.04-.18-.165-.216-.216l-.201-.059a6.45 6.45 0 0 0-.105-2.332 6.465 6.465 0 0 0-.936-2.163c.052-.047.15-.133.177-.159.008-.09.001-.183.094-.282.197-.185.444-.338.743-.522.142-.084.273-.137.415-.242.032-.024.076-.062.11-.089.24-.191.295-.52.123-.736-.172-.216-.506-.236-.745-.045-.034.027-.08.062-.111.088-.134.116-.217.23-.33.35-.246.25-.45.458-.673.609-.097.056-.239.037-.303.033l-.19.135a6.545 6.545 0 0 0-4.146-2.003l-.012-.223c-.065-.062-.143-.115-.163-.25-.022-.268.015-.557.057-.905.023-.163.061-.298.068-.475.001-.04-.001-.099-.001-.142 0-.306-.224-.555-.5-.555-.275 0-.499.249-.499.555l.001.014c0 .041-.002.092 0 .128.006.177.044.312.067.475.042.348.078.637.056.906a.545.545 0 0 1-.162.258l-.012.211a6.424 6.424 0 0 0-4.166 2.003 8.373 8.373 0 0 1-.18-.128c-.09.012-.18.04-.297-.029-.223-.15-.427-.358-.673-.608-.113-.12-.195-.234-.329-.349-.03-.026-.077-.062-.111-.088a.594.594 0 0 0-.348-.132.481.481 0 0 0-.398.176c-.172.216-.117.546.123.737l.007.005.104.083c.142.105.272.159.414.242.299.185.546.338.743.522.076.082.09.226.1.288l.16.143a6.462 6.462 0 0 0-1.02 4.506l-.208.06c-.055.072-.133.184-.215.217-.257.081-.546.11-.895.147-.164.014-.305.006-.48.039-.037.007-.09.02-.133.03l-.004.002-.007.002c-.295.071-.484.342-.423.608.061.267.349.429.645.365l.007-.001.01-.003.129-.029c.17-.046.294-.113.448-.172.33-.118.604-.217.87-.256.112-.009.23.069.288.101l.217-.037a6.5 6.5 0 0 0 2.88 3.596l-.09.218c.033.084.069.199.044.282-.097.252-.263.517-.452.813-.091.136-.185.242-.268.399-.02.037-.045.095-.064.134-.128.275-.034.591.213.71.248.12.556-.007.69-.282v-.002c.02-.039.046-.09.062-.127.07-.162.094-.301.144-.458.132-.332.205-.68.387-.897.05-.06.13-.082.215-.105l.113-.205a6.453 6.453 0 0 0 4.609.012l.106.192c.086.028.18.042.256.155.136.232.229.507.342.84.05.156.074.295.145.457.016.037.043.09.062.129.133.276.442.402.69.282.247-.118.341-.435.213-.71-.02-.039-.045-.096-.065-.134-.083-.156-.177-.261-.268-.398-.19-.296-.346-.541-.443-.793-.04-.13.007-.21.038-.294-.018-.022-.059-.144-.083-.202a6.499 6.499 0 0 0 2.88-3.622c.064.01.176.03.213.038.075-.05.144-.114.28-.104.266.039.54.138.87.256.154.06.277.128.448.173.036.01.088.019.13.028l.009.003.007.001c.297.064.584-.098.645-.365.06-.266-.128-.537-.423-.608zM16.4 9.701l-1.95 1.746v.005a.44.44 0 0 0 .173.757l.003.01 2.526.728a5.199 5.199 0 0 0-.108-1.674A5.208 5.208 0 0 0 16.4 9.7zm-4.013 5.325a.437.437 0 0 0-.404-.232.44.44 0 0 0-.372.233h-.002l-1.268 2.292a5.164 5.164 0 0 0 3.326.003l-1.27-2.296h-.01zm1.888-1.293a.44.44 0 0 0-.27.036.44.44 0 0 0-.214.572l-.003.004 1.01 2.438a5.15 5.15 0 0 0 2.081-2.615l-2.6-.44-.004.005z" fill="#fff"/></g><text x="360" y="1506" font-family="Inter, 'Helvetica Neue', Helvetica, Arial, sans-serif" font-size="12" fill="#f2f2f2" text-anchor="start" font-weight="400"><tspan x="360" dy="0.0">EKS control plane</tspan></text><text x="360" y="1521" font-family="Inter, 'Helvetica Neue', Helvetica, Arial, sans-serif" font-size="10" fill="#9aa4ad" text-anchor="start" font-weight="400"><tspan x="360" dy="0.0">AWS managed · private API endpoint</tspan></text><path d="M195 1000 L150 1000 L150 1512 L303 1512" fill="none" stroke="#3b7fe6" stroke-width="1.7" stroke-linejoin="miter" stroke-dasharray="5 3" marker-end="url(#m3b7fe6)"/><text x="142" y="1330" font-family="Inter, 'Helvetica Neue', Helvetica, Arial, sans-serif" font-size="10" fill="#9aa4ad" text-anchor="middle" font-weight="400" transform="rotate(-90 142 1330)"><tspan x="142" dy="0.0">cross-account ENIs to control plane</tspan></text><text x="100" y="1668" font-family="Inter, 'Helvetica Neue', Helvetica, Arial, sans-serif" font-size="11.5" fill="#c9d1d9" text-anchor="start" font-weight="600"><tspan x="100" dy="0.0">Legend</tspan></text><path d="M100 1690 L150 1690" fill="none" stroke="#f2f2f2" stroke-width="1.7" stroke-linejoin="miter" marker-end="url(#mf2f2f2)"/><text x="160" y="1694" font-family="Inter, 'Helvetica Neue', Helvetica, Arial, sans-serif" font-size="10.5" fill="#c9d1d9" text-anchor="start" font-weight="400"><tspan x="160" dy="0.0">request / deploy flow</tspan></text><path d="M100 1712 L150 1712" fill="none" stroke="#E6522C" stroke-width="1.7" stroke-linejoin="miter" stroke-dasharray="5 3" marker-end="url(#mE6522C)"/><text x="160" y="1716" font-family="Inter, 'Helvetica Neue', Helvetica, Arial, sans-serif" font-size="10.5" fill="#c9d1d9" text-anchor="start" font-weight="400"><tspan x="160" dy="0.0">metrics scrape</tspan></text><path d="M100 1734 L150 1734" fill="none" stroke="#FF4F8B" stroke-width="1.7" stroke-linejoin="miter" stroke-dasharray="5 3" marker-end="url(#mFF4F8B)"/><text x="160" y="1738" font-family="Inter, 'Helvetica Neue', Helvetica, Arial, sans-serif" font-size="10.5" fill="#c9d1d9" text-anchor="start" font-weight="400"><tspan x="160" dy="0.0">async events (SQS)</tspan></text><path d="M100 1756 L150 1756" fill="none" stroke="#F54749" stroke-width="1.7" stroke-linejoin="miter" stroke-dasharray="5 3" marker-end="url(#mF54749)"/><text x="160" y="1760" font-family="Inter, 'Helvetica Neue', Helvetica, Arial, sans-serif" font-size="10.5" fill="#c9d1d9" text-anchor="start" font-weight="400"><tspan x="160" dy="0.0">OIDC / secret retrieval</tspan></text></svg>